<svg width="60" height="60" viewBox="0 0 60 60" fill="none" xmlns="http://www.w3.org/2000/svg">
<path d="M0 6C0 2.68629 2.68629 0 6 0H54C57.3137 0 60 2.68629 60 6V54C60 57.3137 57.3137 60 54 60H6C2.68629 60 0 57.3137 0 54V6Z" fill="#DAECED" fill-opacity="0.5"/>
<path fill-rule="evenodd" clip-rule="evenodd" d="M45 12H40.5V10.5C40.5 9.67157 39.8284 9 39 9C38.1716 9 37.5 9.67157 37.5 10.5V12H22.5V10.5C22.5 9.67157 21.8284 9 21 9C20.1716 9 19.5 9.67157 19.5 10.5V12H15C13.3431 12 12 13.3431 12 15V45C12 46.6569 13.3431 48 15 48H45C46.6569 48 48 46.6569 48 45V15C48 13.3431 46.6569 12 45 12ZM19.5 15V16.5C19.5 17.3284 20.1716 18 21 18C21.8284 18 22.5 17.3284 22.5 16.5V15H37.5V16.5C37.5 17.3284 38.1716 18 39 18C39.8284 18 40.5 17.3284 40.5 16.5V15H45V21H15V15H19.5ZM45 45H15V24H45V45ZM27 28.5V40.5C27 41.3284 26.3284 42 25.5 42C24.6716 42 24 41.3284 24 40.5V30.9263L23.1712 31.3425C22.4298 31.7132 21.5282 31.4127 21.1575 30.6712C20.7868 29.9298 21.0873 29.0282 21.8287 28.6575L24.8288 27.1575C25.2939 26.9247 25.8464 26.9496 26.2888 27.2231C26.7313 27.4966 27.0004 27.9799 27 28.5ZM38.0925 34.2094L34.5 39H37.5C38.3284 39 39 39.6716 39 40.5C39 41.3284 38.3284 42 37.5 42H31.5C30.9318 42 30.4124 41.679 30.1584 41.1708C29.9043 40.6626 29.9591 40.0545 30.3 39.6L35.6963 32.4056C36.0307 31.9604 36.091 31.3665 35.8528 30.8632C35.6146 30.3598 35.1172 30.0298 34.5609 30.0061C34.0045 29.9824 33.4808 30.2688 33.2006 30.75C32.9404 31.2292 32.4406 31.5295 31.8953 31.5341C31.35 31.5388 30.8451 31.2472 30.5767 30.7725C30.3083 30.2978 30.3187 29.7149 30.6038 29.25C31.6225 27.4871 33.6981 26.6278 35.6648 27.1549C37.6315 27.6819 38.9993 29.4639 39 31.5C39.0032 32.4783 38.6843 33.4304 38.0925 34.2094Z" fill="#098289"/>
</svg>
