<svg width="24" height="27" viewBox="0 0 24 27" fill="none" xmlns="http://www.w3.org/2000/svg">
<path d="M6.35936 26.1478C6.53478 26.429 6.79727 26.6452 7.10689 26.7635C7.41651 26.8818 7.75629 26.8957 8.07454 26.8031C10.8161 26.039 13.1104 24.5511 14.7183 22.4959C20.1076 21.4803 23.8597 17.0745 23.8597 11.7365C23.8546 10.2936 23.5557 8.86691 22.9812 7.54334C22.4067 6.21976 21.5688 5.02704 20.5183 4.03787C18.298 1.90188 15.2733 0.725769 12.0001 0.725769C8.72701 0.725769 5.70227 1.90188 3.48194 4.03743C2.43151 5.0266 1.59353 6.21932 1.01906 7.5429C0.444595 8.86647 0.145685 10.2932 0.140553 11.736C0.119742 14.1025 0.879688 16.4098 2.30272 18.3007C3.72576 20.1916 5.7325 21.5606 8.01222 22.1958C7.74027 22.8496 7.16664 23.5155 6.48312 24.317C6.26514 24.5666 6.13501 24.8809 6.11265 25.2115C6.0903 25.5422 6.17696 25.8711 6.35936 26.1478ZM12.0001 4.35937C12.1961 4.35937 12.3877 4.41749 12.5507 4.52637C12.7136 4.63526 12.8406 4.79002 12.9156 4.97109C12.9906 5.15215 13.0103 5.35139 12.972 5.54361C12.9338 5.73584 12.8394 5.9124 12.7008 6.05098C12.5622 6.18957 12.3857 6.28394 12.1935 6.32218C12.0012 6.36041 11.802 6.34079 11.6209 6.26579C11.4399 6.19079 11.2851 6.06378 11.1762 5.90082C11.0673 5.73787 11.0092 5.54628 11.0092 5.3503C11.0092 5.08749 11.1136 4.83544 11.2994 4.64961C11.4853 4.46377 11.7373 4.35937 12.0001 4.35937ZM2.98957 10.3672C3.09381 9.35569 3.56864 8.4185 4.32262 7.73616C5.0766 7.05382 6.05638 6.6746 7.07327 6.67153C9.5367 6.67835 9.5367 8.04693 12.0001 8.04693C14.4636 8.04693 14.4636 6.67879 16.927 6.67197C17.9439 6.67504 18.9237 7.05426 19.6777 7.7366C20.4316 8.41894 20.9065 9.35613 21.0107 10.3677C21.6011 15.8933 17.6096 20.7646 12.0001 20.7646C6.39063 20.7646 2.3992 15.8933 2.98957 10.3672Z" fill="#098289"/>
</svg>
