<svg width="132" height="101" viewBox="0 0 132 101" fill="none" xmlns="http://www.w3.org/2000/svg">
<circle cx="66" cy="61" r="40" fill="#FE9400"/>
<path d="M86.758 67.0704C87.4196 66.7494 88.0164 66.3094 88.5186 65.7722C90.132 64.0154 90.0569 61.7863 89.9531 58.7018C89.8516 55.6818 89.7742 53.4871 88.1004 51.7615C84.8464 42.7406 75.7484 37.0004 66 37C56.2515 36.9996 47.1524 42.7409 43.8999 51.7612C42.2257 53.4871 42.1483 55.6803 42.0468 58.7018C41.943 61.7863 41.8679 64.0154 43.4888 65.7806C43.9683 66.2908 44.5324 66.7141 45.1562 67.0319C45.259 67.0814 45.3744 67.0989 45.4872 67.0821C45.6001 67.0653 45.7053 67.015 45.7893 66.9377C45.8732 66.8605 45.9321 66.7598 45.9582 66.6487C45.9843 66.5376 45.9765 66.4213 45.9357 66.3147C45.004 63.9522 44.5293 61.4343 44.5368 58.8947C44.4311 47.5634 54.7419 38.8875 66 38.8875C77.258 38.8875 87.5696 47.5646 87.4632 58.8947C87.4638 61.4503 86.9636 63.9813 85.9909 66.3445C85.9497 66.4502 85.941 66.5657 85.9658 66.6763C85.9906 66.7869 86.0479 66.8877 86.1302 66.9656C86.2126 67.0435 86.3163 67.0951 86.4281 67.1138C86.5399 67.1325 86.6548 67.1174 86.758 67.0704Z" fill="white"/>
<path d="M69.9033 66.5075C70.3253 66.0795 70.56 65.5014 70.5558 64.9004C70.5515 64.2993 70.3087 63.7246 69.8807 63.3026C69.4527 62.8806 68.8746 62.6459 68.2735 62.6502C67.6725 62.6544 67.0978 62.8972 66.6758 63.3252C66.5944 63.4259 66.4937 63.5092 66.3796 63.5701C66.2655 63.6311 66.1402 63.6685 66.0114 63.6801C65.7543 63.6519 65.5179 63.5263 65.3508 63.329C64.9293 62.9005 64.3548 62.657 63.7538 62.652C63.1527 62.6471 62.5743 62.8811 62.1458 63.3026C61.7173 63.7241 61.4738 64.2985 61.4689 64.8996C61.4639 65.5006 61.6979 66.079 62.1194 66.5075C62.6169 67.0423 63.2192 67.4687 63.8889 67.7603C64.5585 68.052 65.281 68.2025 66.0114 68.2025C66.7417 68.2025 67.4643 68.052 68.1339 67.7603C68.8035 67.4687 69.4058 67.0423 69.9033 66.5075ZM72.4099 63.2347C73.0186 63.2225 73.5981 62.9714 74.0233 62.5356C74.4485 62.0998 74.6852 61.5143 74.6824 60.9055C74.6749 60.2789 74.6749 59.0218 74.6824 58.3952C74.6864 57.7889 74.4527 57.2051 74.0315 56.769C73.6102 56.3329 73.0349 56.0792 72.4288 56.0623C71.8276 56.0642 71.2515 56.3031 70.8254 56.7271C70.3992 57.1512 70.1574 57.7261 70.1525 58.3272V60.9697C70.1557 61.5681 70.3944 62.1412 70.8168 62.565C71.2392 62.9888 71.8115 63.2294 72.4099 63.2347ZM61.8476 58.3272C61.8416 57.729 61.6016 57.157 61.1789 56.7336C60.7563 56.3102 60.1846 56.0692 59.5864 56.0623C58.9777 56.0754 58.3986 56.3275 57.9741 56.7639C57.5496 57.2004 57.3139 57.7863 57.3177 58.3952C57.3252 59.0218 57.3252 60.2789 57.3177 60.9055C57.314 61.514 57.5499 62.0994 57.9745 62.5353C58.399 62.9711 58.9781 63.2224 59.5864 63.2347C60.185 63.2289 60.7574 62.9883 61.1803 62.5647C61.6033 62.1411 61.8429 61.5683 61.8476 60.9697V58.3272Z" fill="white"/>
<path d="M56.33 83.6006C56.6307 84.0827 57.0807 84.4534 57.6115 84.6562C58.1422 84.859 58.7247 84.8828 59.2703 84.724C63.9701 83.4141 67.9032 80.8634 70.6597 77.3402C79.8985 75.5992 86.3306 68.0463 86.3306 58.8955C86.3218 56.422 85.8094 53.9763 84.8246 51.7073C83.8398 49.4383 82.4032 47.3936 80.6025 45.6979C76.7962 42.0362 71.611 40.02 65.9999 40.02C60.3888 40.02 55.2035 42.0362 51.3973 45.6972C49.5965 47.3929 48.16 49.4375 47.1752 51.7065C46.1904 53.9755 45.678 56.4213 45.6692 58.8947C45.6335 62.9515 46.9363 66.9069 49.3757 70.1485C51.8152 73.39 55.2554 75.7369 59.1635 76.8257C58.6973 77.9465 57.7139 79.088 56.5421 80.4621C56.1685 80.8901 55.9454 81.4288 55.9071 81.9956C55.8687 82.5625 56.0173 83.1263 56.33 83.6006ZM65.9999 46.2491C66.3359 46.2491 66.6643 46.3487 66.9436 46.5353C67.223 46.722 67.4407 46.9873 67.5693 47.2977C67.6979 47.6081 67.7315 47.9497 67.666 48.2792C67.6004 48.6087 67.4386 48.9114 67.2011 49.149C66.9635 49.3865 66.6608 49.5483 66.3313 49.6139C66.0018 49.6794 65.6602 49.6458 65.3498 49.5172C65.0394 49.3886 64.7741 49.1709 64.5874 48.8915C64.4008 48.6122 64.3012 48.2838 64.3012 47.9478C64.3012 47.4972 64.4801 47.0652 64.7987 46.7466C65.1173 46.428 65.5494 46.2491 65.9999 46.2491ZM50.5532 56.5482C50.7319 54.8142 51.5459 53.2076 52.8384 52.0378C54.131 50.8681 55.8106 50.218 57.5538 50.2127C61.7769 50.2244 61.7769 52.5706 65.9999 52.5706C70.2229 52.5706 70.2229 50.2252 74.4459 50.2135C76.1892 50.2188 77.8688 50.8689 79.1613 52.0386C80.4539 53.2083 81.2679 54.8149 81.4466 56.549C82.4586 66.0215 75.6162 74.3724 65.9999 74.3724C56.3836 74.3724 49.5411 66.0215 50.5532 56.5482Z" fill="white"/>
<rect x="0.5" y="0.5" width="131" height="30" rx="15" fill="white" stroke="#25A5AD"/>
<path d="M17.1465 20H15.377V16.4375H11.5684V20H9.79883V11.5449H11.5684V14.9785H15.377V11.5449H17.1465V20ZM21.2891 20.1348C19.3906 20.1348 18.1777 18.916 18.1777 16.8535C18.1777 14.8203 19.4082 13.584 21.2891 13.584C23.1699 13.584 24.4004 14.8145 24.4004 16.8535C24.4004 18.9219 23.1875 20.1348 21.2891 20.1348ZM21.2891 18.8281C22.127 18.8281 22.6602 18.1191 22.6602 16.8594C22.6602 15.6113 22.1211 14.8906 21.2891 14.8906C20.457 14.8906 19.9121 15.6113 19.9121 16.8594C19.9121 18.1191 20.4453 18.8281 21.2891 18.8281ZM34.0391 13.7188L32.375 20H30.5527L29.416 15.5586H29.3809L28.25 20H26.4512L24.7812 13.7188H26.5039L27.4531 18.377H27.4883L28.6016 13.7188H30.2422L31.3613 18.377H31.3965L32.3516 13.7188H34.0391ZM40.9707 20.1465C38.5098 20.1465 36.9688 18.5 36.9688 15.7695C36.9688 13.0449 38.5215 11.3984 40.9707 11.3984C43.0039 11.3984 44.5508 12.6875 44.6855 14.5801H42.9629C42.7988 13.543 42.002 12.8633 40.9707 12.8633C39.6348 12.8633 38.7734 13.9824 38.7734 15.7637C38.7734 17.5684 39.623 18.6816 40.9766 18.6816C42.0254 18.6816 42.7812 18.0664 42.9688 17.0645H44.6914C44.4922 18.9512 43.0449 20.1465 40.9707 20.1465ZM48.0312 18.8633C48.7754 18.8633 49.3906 18.377 49.3906 17.6973V17.2402L48.0664 17.3223C47.4277 17.3691 47.0645 17.6562 47.0645 18.1016C47.0645 18.5703 47.4512 18.8633 48.0312 18.8633ZM47.4688 20.0996C46.2734 20.0996 45.3652 19.3262 45.3652 18.1953C45.3652 17.0527 46.2441 16.3906 47.8086 16.2969L49.3906 16.2031V15.7871C49.3906 15.2012 48.9805 14.8613 48.3359 14.8613C47.6973 14.8613 47.293 15.1777 47.2109 15.6406H45.6465C45.7109 14.4219 46.748 13.584 48.4121 13.584C50.0234 13.584 51.0723 14.416 51.0723 15.6816V20H49.4199V19.0391H49.3848C49.0332 19.707 48.2539 20.0996 47.4688 20.0996ZM52.1797 20V13.7188H53.832V14.8379H53.8672C54.2012 14.0586 54.8633 13.6016 55.8301 13.6016C57.2246 13.6016 58.0098 14.4805 58.0098 15.9512V20H56.2988V16.3086C56.2988 15.4883 55.9121 15.0195 55.1445 15.0195C54.377 15.0195 53.8906 15.582 53.8906 16.3965V20H52.1797ZM61.502 20V13.7188H63.2129V20H61.502ZM62.3574 13.0273C61.8418 13.0273 61.4434 12.6348 61.4434 12.1426C61.4434 11.6445 61.8418 11.2578 62.3574 11.2578C62.873 11.2578 63.2715 11.6445 63.2715 12.1426C63.2715 12.6348 62.873 13.0273 62.3574 13.0273ZM74.2285 20H72.459V16.4375H68.6504V20H66.8809V11.5449H68.6504V14.9785H72.459V11.5449H74.2285V20ZM78.3066 14.8496C77.5566 14.8496 77.0176 15.418 76.959 16.2031H79.625C79.5898 15.4004 79.0684 14.8496 78.3066 14.8496ZM79.6484 18.0781H81.2188C81.0312 19.3086 79.9062 20.1348 78.3535 20.1348C76.4199 20.1348 75.2598 18.8984 75.2598 16.8887C75.2598 14.8848 76.4316 13.584 78.2891 13.584C80.1172 13.584 81.2715 14.8203 81.2715 16.7305V17.252H76.9414V17.3574C76.9414 18.2539 77.5098 18.8691 78.3828 18.8691C79.0098 18.8691 79.4902 18.5586 79.6484 18.0781ZM82.1973 20V11.5449H83.9082V20H82.1973ZM88.7305 13.6191C90.3242 13.6191 91.3027 14.832 91.3027 16.8594C91.3027 18.8809 90.3301 20.0996 88.7598 20.0996C87.8457 20.0996 87.1426 19.6543 86.8086 18.9453H86.7734V22.0508H85.0625V13.7188H86.75V14.8145H86.7852C87.125 14.0762 87.8223 13.6191 88.7305 13.6191ZM88.1562 18.7227C89.0117 18.7227 89.5508 18.002 89.5508 16.8594C89.5508 15.7227 89.0117 14.9902 88.1562 14.9902C87.3184 14.9902 86.7676 15.7344 86.7676 16.8594C86.7676 17.9961 87.3184 18.7227 88.1562 18.7227ZM98.8848 20H97.1152V16.8418L94.1738 11.5449H96.1016L97.9941 15.1543H98.0352L99.9336 11.5449H101.832L98.8848 16.8418V20ZM104.141 20.1348C102.242 20.1348 101.029 18.916 101.029 16.8535C101.029 14.8203 102.26 13.584 104.141 13.584C106.021 13.584 107.252 14.8145 107.252 16.8535C107.252 18.9219 106.039 20.1348 104.141 20.1348ZM104.141 18.8281C104.979 18.8281 105.512 18.1191 105.512 16.8594C105.512 15.6113 104.973 14.8906 104.141 14.8906C103.309 14.8906 102.764 15.6113 102.764 16.8594C102.764 18.1191 103.297 18.8281 104.141 18.8281ZM113.938 13.7188V20H112.285V18.8691H112.25C111.939 19.6602 111.318 20.1172 110.369 20.1172C109.01 20.1172 108.107 19.2324 108.107 17.7676V13.7188H109.818V17.4102C109.818 18.248 110.234 18.6934 110.99 18.6934C111.752 18.6934 112.227 18.1484 112.227 17.3164V13.7188H113.938ZM114.811 13.918C114.84 12.4766 115.859 11.4688 117.658 11.4688C119.334 11.4688 120.441 12.4004 120.441 13.7363C120.441 14.6211 120.014 15.2363 119.188 15.7227C118.408 16.1738 118.191 16.4609 118.191 17.0352V17.3457H116.639L116.627 17.0059C116.551 16.0859 116.873 15.5586 117.682 15.084C118.438 14.6328 118.666 14.3457 118.666 13.7891C118.666 13.2324 118.221 12.8281 117.553 12.8281C116.879 12.8281 116.434 13.2559 116.398 13.918H114.811ZM117.436 20.1465C116.908 20.1465 116.48 19.7422 116.48 19.2266C116.48 18.7109 116.908 18.3066 117.436 18.3066C117.969 18.3066 118.396 18.7109 118.396 19.2266C118.396 19.7422 117.969 20.1465 117.436 20.1465Z" fill="#179FA8"/>
</svg>
