<svg width="60" height="60" viewBox="0 0 60 60" fill="none" xmlns="http://www.w3.org/2000/svg">
<rect width="60" height="60" rx="6" fill="#ECF5F5"/>
<path d="M49.6496 19.44C49.6496 16.884 47.8316 14.808 45.5996 14.808H43.1696V10.374C43.1696 9.546 42.4976 8.874 41.6696 8.874C40.8416 8.874 40.1696 9.546 40.1696 10.374V14.808H22.7516V10.374C22.7516 9.546 22.0796 8.874 21.2516 8.874C20.4236 8.874 19.7516 9.546 19.7516 10.374V14.808H17.3156C15.0836 14.808 13.2656 16.884 13.2656 19.44V27.006C13.2656 27.006 13.2656 27.006 13.2656 27.012V30C13.2656 30.828 13.9376 31.5 14.7656 31.5C15.5936 31.5 16.2656 30.828 16.2656 30V26.868C16.2656 26.04 16.9376 25.368 17.7656 25.368H45.1556C45.9776 25.368 46.6436 26.034 46.6556 26.85V38.934C46.6556 38.934 46.6556 38.946 46.6556 38.952V46.626C46.6556 47.454 45.9836 48.126 45.1556 48.126H40.7516C39.9236 48.126 39.2516 48.798 39.2516 49.626C39.2516 50.454 39.9236 51.126 40.7516 51.126H45.1556C47.6396 51.126 49.6556 49.11 49.6556 46.626V26.874C49.6556 26.874 49.6556 26.85 49.6556 26.838V19.44H49.6496ZM45.1496 22.368H17.7596C17.2316 22.368 16.7276 22.464 16.2596 22.632V19.44C16.2596 18.48 16.8116 17.808 17.3096 17.808H21.2276C21.2276 17.808 21.2396 17.808 21.2456 17.808C21.2516 17.808 21.2576 17.808 21.2636 17.808H41.6516C41.6516 17.808 41.6636 17.808 41.6696 17.808C41.6756 17.808 41.6816 17.808 41.6876 17.808H45.5996C46.0976 17.808 46.6496 18.48 46.6496 19.44V22.632C46.1816 22.464 45.6776 22.368 45.1496 22.368Z" fill="#098289"/>
<path d="M35.8498 45.444C35.8498 45.132 35.7537 44.838 35.5917 44.598C35.5798 44.58 35.5677 44.568 35.5557 44.556C35.5077 44.49 35.4597 44.43 35.3997 44.376C35.3997 44.376 35.3997 44.376 35.3937 44.37L31.0738 40.194C30.4797 39.618 29.5257 39.636 28.9497 40.23C28.3737 40.824 28.3918 41.772 28.9858 42.348L30.6418 43.95H11.8437C11.0157 43.95 10.3438 44.622 10.3438 45.45C10.3438 46.278 11.0157 46.95 11.8437 46.95H30.6418L28.9858 48.552C28.3918 49.128 28.3737 50.076 28.9497 50.67C29.2437 50.976 29.6337 51.126 30.0297 51.126C30.4257 51.126 30.7798 50.988 31.0738 50.706L35.3937 46.53C35.3937 46.53 35.3937 46.53 35.3997 46.524C35.4538 46.47 35.5077 46.404 35.5557 46.344C35.5677 46.326 35.5798 46.314 35.5917 46.302C35.7537 46.062 35.8498 45.774 35.8498 45.456V45.444Z" fill="#098289"/>
</svg>
