<svg width="19" height="19" viewBox="0 0 19 19" fill="none" xmlns="http://www.w3.org/2000/svg">
<g clip-path="url(#clip0_18262_1185)">
<path fill-rule="evenodd" clip-rule="evenodd" d="M16.5696 15.147C15.4987 13.2957 13.8485 11.9682 11.9226 11.3389C13.8807 10.1733 14.8186 7.84308 14.2141 5.64597C13.6097 3.44886 11.6118 1.92639 9.33301 1.92639C7.05426 1.92639 5.05635 3.44886 4.45187 5.64597C3.84739 7.84308 4.78535 10.1733 6.7434 11.3389C4.81754 11.9675 3.1673 13.295 2.09645 15.147C1.98954 15.3214 1.98565 15.54 2.08631 15.718C2.18696 15.896 2.37629 16.0054 2.58078 16.0036C2.78526 16.0019 2.97269 15.8893 3.07027 15.7095C4.39496 13.4202 6.73637 12.0533 9.33301 12.0533C11.9296 12.0533 14.2711 13.4202 15.5957 15.7095C15.6933 15.8893 15.8808 16.0019 16.0852 16.0036C16.2897 16.0054 16.4791 15.896 16.5797 15.718C16.6804 15.54 16.6765 15.3214 16.5696 15.147ZM5.39551 6.9908C5.39551 4.81618 7.15839 3.0533 9.33301 3.0533C11.5076 3.0533 13.2705 4.81618 13.2705 6.9908C13.2705 9.16542 11.5076 10.9283 9.33301 10.9283C7.15935 10.926 5.39783 9.16446 5.39551 6.9908Z" fill="#098289"/>
</g>
<defs>
<clipPath id="clip0_18262_1185">
<rect width="18" height="18" fill="white" transform="translate(0.333008 0.701218)"/>
</clipPath>
</defs>
</svg>
