<svg width="60" height="60" viewBox="0 0 60 60" fill="none" xmlns="http://www.w3.org/2000/svg">
<path d="M0 6C0 2.68629 2.68629 0 6 0H54C57.3137 0 60 2.68629 60 6V54C60 57.3137 57.3137 60 54 60H6C2.68629 60 0 57.3137 0 54V6Z" fill="#DAECED" fill-opacity="0.5"/>
<path d="M36.6831 30.5313H34.3031L33.7613 28.895C37.4428 27.5669 40.0938 24.0447 40.0938 19.9063V15.6563C40.0938 10.3809 35.8012 6.09375 30.5312 6.09375H29.4688C24.1934 6.09375 19.9062 10.3809 19.9062 15.6563V19.9063C19.9062 24.0447 22.5519 27.5669 26.2334 28.895L25.6916 30.5313H23.3169C17.6272 30.5313 13 35.2859 13 41.1297V50.6072C13 52.4241 14.3972 53.9063 16.1184 53.9063H43.8816C45.5975 53.9063 47 52.4241 47 50.6072V41.1297C47 35.2859 42.3675 30.5313 36.6831 30.5313ZM29.4688 8.21875H30.5312C31.0731 8.21875 31.6044 8.2825 32.1144 8.39406C32.0187 12.4103 28.7303 15.6563 24.6875 15.6563H22.0312C22.0312 11.555 25.3675 8.21875 29.4688 8.21875ZM22.0312 19.9063V17.7813H24.6875C29.6281 17.7813 33.7081 14.0094 34.1969 9.19625C36.4441 10.4766 37.9688 12.8884 37.9688 15.6563V19.9063C37.9688 24.0075 34.6325 27.3438 30.5312 27.3438H29.4688C25.3675 27.3438 22.0312 24.0075 22.0312 19.9063ZM28.9375 51.7813H16.1184C15.5713 51.7813 15.125 51.2553 15.125 50.6072V41.1297C15.125 37.2994 17.59 34.0588 20.9687 33.0122V38.6541C19.4334 39.1163 18.3125 40.5347 18.3125 42.2188V44.875C18.3125 45.1568 18.4244 45.427 18.6237 45.6263C18.823 45.8256 19.0932 45.9375 19.375 45.9375C19.6568 45.9375 19.927 45.8256 20.1263 45.6263C20.3256 45.427 20.4375 45.1568 20.4375 44.875V42.2188C20.4375 41.3369 21.1494 40.625 22.0312 40.625C22.9078 40.625 23.625 41.3369 23.625 42.2188V44.875C23.625 45.1568 23.7369 45.427 23.9362 45.6263C24.1355 45.8256 24.4057 45.9375 24.6875 45.9375C24.9693 45.9375 25.2395 45.8256 25.4388 45.6263C25.6381 45.427 25.75 45.1568 25.75 44.875V42.2188C25.75 40.5347 24.6238 39.1163 23.0938 38.6541V32.6669C23.1681 32.6669 23.2372 32.6562 23.3169 32.6562H25.3622C25.41 32.7359 25.4631 32.8103 25.5269 32.8741L28.9375 36.2847V51.7813ZM27.4925 31.8381L28.3106 29.3891C28.6878 29.4369 29.0756 29.4688 29.4688 29.4688H30.5312C30.9191 29.4688 31.3069 29.4369 31.6841 29.3891L32.5022 31.8381L30 34.3403L27.4925 31.8381ZM44.875 50.6072C44.875 51.2553 44.4287 51.7813 43.8816 51.7813H31.0625V36.2847L34.4678 32.8741C34.5369 32.8103 34.59 32.7359 34.6325 32.6562H36.6831C36.7575 32.6562 36.8319 32.6669 36.9062 32.6669V38.6541C35.3709 39.1163 34.25 40.5347 34.25 42.2188C34.25 44.2694 35.9181 45.9375 37.9688 45.9375C40.0194 45.9375 41.6875 44.2694 41.6875 42.2188C41.6875 40.5347 40.5612 39.1163 39.0312 38.6541V33.0122C42.4047 34.0588 44.875 37.2994 44.875 41.1297V50.6072ZM37.9688 40.625C38.8453 40.625 39.5625 41.3369 39.5625 42.2188C39.5625 43.0953 38.8453 43.8125 37.9688 43.8125C37.0869 43.8125 36.375 43.0953 36.375 42.2188C36.375 41.3369 37.0869 40.625 37.9688 40.625Z" fill="#098289"/>
</svg>
