<svg width="24" height="24" viewBox="0 0 24 24" fill="none" xmlns="http://www.w3.org/2000/svg">
<g clip-path="url(#clip0_17991_65715)">
<path fill-rule="evenodd" clip-rule="evenodd" d="M18.75 19.1719V21.75C18.75 22.1642 18.4142 22.5 18 22.5C17.5858 22.5 17.25 22.1642 17.25 21.75V19.1719C17.2575 16.8969 15.9712 14.8155 13.9331 13.8047L9.39563 11.5369C6.84817 10.2734 5.24046 7.67168 5.25 4.82812V2.25C5.25 1.83579 5.58579 1.5 6 1.5C6.41421 1.5 6.75 1.83579 6.75 2.25V4.82812C6.7425 7.10308 8.0288 9.1845 10.0669 10.1953L14.6044 12.4631C17.1518 13.7266 18.7595 16.3283 18.75 19.1719ZM15 18.75H6.76594C6.80202 18.2391 6.90379 17.7349 7.06875 17.25H13.8853C14.2995 17.25 14.6353 16.9142 14.6353 16.5C14.6353 16.0858 14.2995 15.75 13.8853 15.75H7.82438C8.20074 15.2059 8.66487 14.7282 9.19781 14.3363C9.53229 14.0911 9.60469 13.6212 9.35953 13.2867C9.11437 12.9522 8.64448 12.8798 8.31 13.125C6.38876 14.5413 5.25332 16.785 5.25 19.1719V21.75C5.25 22.1642 5.58579 22.5 6 22.5C6.41421 22.5 6.75 22.1642 6.75 21.75V20.25H15C15.4142 20.25 15.75 19.9142 15.75 19.5C15.75 19.0858 15.4142 18.75 15 18.75ZM18 1.5C17.5858 1.5 17.25 1.83579 17.25 2.25V3.75H9C8.58579 3.75 8.25 4.08579 8.25 4.5C8.25 4.91421 8.58579 5.25 9 5.25H17.2341C17.198 5.76093 17.0962 6.26508 16.9312 6.75H10.1147C9.70047 6.75 9.36469 7.08579 9.36469 7.5C9.36469 7.91421 9.70047 8.25 10.1147 8.25H16.1756C15.7993 8.79406 15.3351 9.27181 14.8022 9.66375C14.4682 9.90891 14.3962 10.3784 14.6414 10.7123C14.8866 11.0463 15.356 11.1183 15.69 10.8731C17.6107 9.45723 18.7461 7.21431 18.75 4.82812V2.25C18.75 1.83579 18.4142 1.5 18 1.5Z" fill="#1D7885"/>
</g>
<defs>
<clipPath id="clip0_17991_65715">
<rect width="24" height="24" fill="white"/>
</clipPath>
</defs>
</svg>
