<svg width="16" height="16" viewBox="0 0 16 16" fill="none" xmlns="http://www.w3.org/2000/svg">
<path d="M14.9193 10.0235C15.1399 9.91648 15.3388 9.76979 15.5062 9.59074C16.044 9.00512 16.019 8.26209 15.9844 7.23392C15.9505 6.22727 15.9247 5.49569 15.3668 4.92051C14.2821 1.91352 11.2495 0.000125838 7.99998 6.20473e-09C4.75051 -0.000125825 1.71747 1.91364 0.633307 4.92039C0.075244 5.49569 0.0494486 6.22677 0.0156 7.23392C-0.0190037 8.26209 -0.0440442 9.00512 0.496276 9.59351C0.656085 9.76358 0.844127 9.90471 1.05207 10.0106C1.08635 10.0271 1.12478 10.033 1.16241 10.0274C1.20003 10.0218 1.2351 10.005 1.26309 9.97924C1.29108 9.95349 1.3107 9.91993 1.3194 9.8829C1.32811 9.84588 1.3255 9.80709 1.31192 9.77156C1.00133 8.98406 0.843085 8.14475 0.845584 7.29822C0.810351 3.52114 4.24731 0.629157 7.99998 0.629157C11.7527 0.629157 15.1899 3.52152 15.1544 7.29822C15.1546 8.15009 14.9879 8.99375 14.6636 9.7815C14.6499 9.81672 14.647 9.85522 14.6553 9.8921C14.6635 9.92897 14.6826 9.96255 14.7101 9.98852C14.7375 10.0145 14.7721 10.0317 14.8094 10.0379C14.8466 10.0442 14.8849 10.0391 14.9193 10.0235Z" fill="white"/>
<path d="M9.30119 9.83588C9.44186 9.69321 9.52009 9.50051 9.51867 9.30016C9.51726 9.09982 9.43631 8.90824 9.29364 8.76757C9.15098 8.62691 8.95827 8.54868 8.75793 8.55009C8.55758 8.55151 8.366 8.63245 8.22533 8.77512C8.19823 8.80867 8.16466 8.83643 8.12661 8.85675C8.08857 8.87707 8.04683 8.88953 8.00387 8.8934C7.9182 8.88401 7.83939 8.84213 7.78367 8.77638C7.64317 8.63355 7.45168 8.55237 7.25134 8.55072C7.05099 8.54907 6.85819 8.62707 6.71536 8.76757C6.57252 8.90807 6.49135 9.09956 6.4897 9.2999C6.48805 9.50025 6.56605 9.69305 6.70655 9.83588C6.87238 10.0141 7.07316 10.1563 7.29637 10.2535C7.51957 10.3507 7.76042 10.4009 8.00387 10.4009C8.24733 10.4009 8.48817 10.3507 8.71138 10.2535C8.93458 10.1563 9.13536 10.0141 9.30119 9.83588ZM10.1367 8.74492C10.3396 8.74086 10.5328 8.65717 10.6745 8.51191C10.8162 8.36665 10.8952 8.17148 10.8942 7.96854C10.8917 7.75966 10.8917 7.34064 10.8942 7.13176C10.8955 6.92966 10.8177 6.73507 10.6772 6.58971C10.5368 6.44435 10.345 6.35978 10.143 6.35413C9.94262 6.35478 9.75058 6.43442 9.60853 6.57575C9.46649 6.71709 9.3859 6.90874 9.38424 7.10911V7.98993C9.38533 8.1894 9.46487 8.38043 9.60568 8.52171C9.74649 8.66299 9.93725 8.74317 10.1367 8.74492ZM6.61595 7.10911C6.61396 6.90971 6.53394 6.71903 6.39306 6.5779C6.25217 6.43678 6.06162 6.35645 5.86222 6.35413C5.65932 6.35852 5.46628 6.44253 5.32479 6.58802C5.1833 6.73352 5.1047 6.92882 5.10597 7.13176C5.10849 7.34064 5.10849 7.75966 5.10597 7.96854C5.10474 8.17136 5.18339 8.36651 5.32491 8.51179C5.46642 8.65708 5.65944 8.74083 5.86222 8.74492C6.06175 8.74302 6.25255 8.66282 6.39352 8.52161C6.5345 8.3804 6.61438 8.18947 6.61595 7.98993V7.10911Z" fill="white"/>
<path d="M4.7765 15.5335C4.87674 15.6942 5.02673 15.8178 5.20366 15.8854C5.38058 15.953 5.57475 15.9609 5.7566 15.908C7.3232 15.4713 8.63424 14.6211 9.55306 13.4467C12.6327 12.8664 14.7767 10.3488 14.7767 7.29847C14.7738 6.47399 14.603 5.65873 14.2747 4.9024C13.9464 4.14608 13.4676 3.46452 12.8673 2.89928C11.5986 1.67872 9.87016 1.00665 7.9998 1.00665C6.12944 1.00665 4.40102 1.67872 3.13226 2.89903C2.53202 3.46427 2.05316 4.14582 1.7249 4.90215C1.39663 5.65848 1.22583 6.47373 1.22289 7.29822C1.211 8.65048 1.64526 9.96895 2.45842 11.0495C3.27158 12.13 4.41829 12.9123 5.72099 13.2752C5.56559 13.6488 5.2378 14.0293 4.84722 14.4873C4.72266 14.63 4.6483 14.8096 4.63552 14.9985C4.62275 15.1875 4.67227 15.3754 4.7765 15.5335ZM7.9998 3.083C8.11179 3.083 8.22127 3.11621 8.31439 3.17843C8.4075 3.24064 8.48008 3.32908 8.52294 3.43255C8.5658 3.53601 8.57701 3.64987 8.55516 3.75971C8.53331 3.86955 8.47938 3.97044 8.40019 4.04963C8.321 4.12882 8.22011 4.18275 8.11027 4.2046C8.00043 4.22645 7.88658 4.21523 7.78311 4.17238C7.67964 4.12952 7.59121 4.05694 7.52899 3.96382C7.46677 3.87071 7.43356 3.76123 7.43356 3.64924C7.43356 3.49906 7.49322 3.35504 7.59941 3.24884C7.7056 3.14265 7.84962 3.083 7.9998 3.083ZM2.8509 6.51605C2.91047 5.93804 3.1818 5.4025 3.61265 5.01259C4.04349 4.62268 4.60337 4.40598 5.18445 4.40423C6.59212 4.40813 6.59212 5.19017 7.9998 5.19017C9.40748 5.19017 9.40748 4.40838 10.8152 4.40448C11.3962 4.40623 11.9561 4.62293 12.387 5.01284C12.8178 5.40275 13.0891 5.93829 13.1487 6.51631C13.4861 9.67379 11.2052 12.4574 7.9998 12.4574C4.79437 12.4574 2.51355 9.67379 2.8509 6.51605Z" fill="white"/>
</svg>
