<svg width="552" height="55" viewBox="0 0 552 55" fill="none" xmlns="http://www.w3.org/2000/svg">
<mask id="path-1-inside-1_17829_47116" fill="white">
<path d="M0 0H552V1H0V0Z"/>
</mask>
<path d="M552 1V0H0V1V2H552V1Z" fill="#667085" fill-opacity="0.15" mask="url(#path-1-inside-1_17829_47116)"/>
<circle cx="24" cy="28" r="23.5" fill="white" stroke="#E3E3E3"/>
<circle cx="42.7828" cy="40.5218" r="5.21739" fill="#30F284"/>
<path d="M36.1088 31.5052C36.4948 31.318 36.8429 31.0612 37.1359 30.7479C38.077 29.7231 38.0332 28.4228 37.9726 26.6235C37.9134 24.8618 37.8683 23.5816 36.8919 22.575C34.9937 17.3128 29.6865 13.9643 24 13.9641C18.3134 13.9639 13.0056 17.313 11.1083 22.5748C10.1317 23.5816 10.0865 24.861 10.0273 26.6235C9.96674 28.4228 9.92292 29.7231 10.8685 30.7528C11.1481 31.0504 11.4772 31.2974 11.8411 31.4827C11.9011 31.5116 11.9684 31.5218 12.0342 31.512C12.1 31.5022 12.1614 31.4729 12.2104 31.4278C12.2594 31.3827 12.2937 31.324 12.309 31.2592C12.3242 31.1944 12.3196 31.1265 12.2959 31.0644C11.7523 29.6862 11.4754 28.2174 11.4798 26.736C11.4181 20.1261 17.4328 15.0651 24 15.0651C30.5671 15.0651 36.5823 20.1268 36.5202 26.736C36.5205 28.2268 36.2288 29.7032 35.6614 31.0818C35.6373 31.1434 35.6322 31.2108 35.6467 31.2753C35.6612 31.3398 35.6946 31.3986 35.7426 31.444C35.7907 31.4895 35.8512 31.5196 35.9164 31.5305C35.9816 31.5414 36.0486 31.5326 36.1088 31.5052Z" fill="#098289"/>
<path d="M26.2767 31.1769C26.5229 30.9272 26.6598 30.59 26.6573 30.2394C26.6548 29.8888 26.5132 29.5535 26.2635 29.3074C26.0138 29.0612 25.6766 28.9243 25.326 28.9268C24.9754 28.9293 24.6401 29.0709 24.394 29.3206C24.3465 29.3793 24.2878 29.4279 24.2212 29.4634C24.1546 29.499 24.0816 29.5208 24.0064 29.5276C23.8565 29.5111 23.7186 29.4378 23.621 29.3228C23.3752 29.0728 23.0401 28.9308 22.6895 28.9279C22.3389 28.925 22.0015 29.0615 21.7515 29.3074C21.5015 29.5532 21.3595 29.8883 21.3566 30.2389C21.3537 30.5895 21.4902 30.9269 21.7361 31.1769C22.0263 31.4888 22.3777 31.7376 22.7683 31.9077C23.1589 32.0778 23.5804 32.1656 24.0064 32.1656C24.4325 32.1656 24.8539 32.0778 25.2445 31.9077C25.6352 31.7376 25.9865 31.4888 26.2767 31.1769ZM27.7389 29.2677C28.094 29.2606 28.432 29.1142 28.68 28.86C28.928 28.6058 29.0662 28.2642 29.0645 27.9091C29.0601 27.5435 29.0601 26.8102 29.0645 26.4447C29.0668 26.091 28.9305 25.7505 28.6848 25.4961C28.4391 25.2417 28.1034 25.0937 27.7499 25.0838C27.3992 25.085 27.0631 25.2243 26.8146 25.4717C26.566 25.719 26.425 26.0544 26.4221 26.4051V27.9465C26.424 28.2956 26.5632 28.6299 26.8096 28.8771C27.056 29.1243 27.3898 29.2647 27.7389 29.2677ZM21.5775 26.4051C21.5741 26.0561 21.434 25.7224 21.1875 25.4754C20.9409 25.2285 20.6075 25.0879 20.2585 25.0838C19.9034 25.0915 19.5656 25.2385 19.318 25.4931C19.0704 25.7478 18.9329 26.0895 18.9351 26.4447C18.9395 26.8102 18.9395 27.5435 18.9351 27.9091C18.9329 28.264 19.0706 28.6055 19.3182 28.8598C19.5659 29.114 19.9037 29.2606 20.2585 29.2677C20.6077 29.2644 20.9416 29.124 21.1883 28.8769C21.435 28.6298 21.5748 28.2957 21.5775 27.9465V26.4051Z" fill="#098289"/>
<path d="M18.3594 41.1478C18.5348 41.429 18.7973 41.6452 19.1069 41.7635C19.4165 41.8818 19.7563 41.8957 20.0745 41.8031C22.8161 41.039 25.1104 39.5511 26.7183 37.4959C32.1076 36.4803 35.8597 32.0745 35.8597 26.7365C35.8546 25.2936 35.5557 23.8669 34.9812 22.5433C34.4067 21.2198 33.5688 20.027 32.5183 19.0379C30.298 16.9019 27.2733 15.7258 24.0001 15.7258C20.727 15.7258 17.7023 16.9019 15.4819 19.0374C14.4315 20.0266 13.5935 21.2193 13.0191 22.5429C12.4446 23.8665 12.1457 25.2932 12.1406 26.736C12.1197 29.1025 12.8797 31.4098 14.3027 33.3007C15.7258 35.1916 17.7325 36.5606 20.0122 37.1958C19.7403 37.8496 19.1666 38.5155 18.4831 39.317C18.2651 39.5666 18.135 39.8809 18.1127 40.2115C18.0903 40.5422 18.177 40.8711 18.3594 41.1478ZM24.0001 19.3594C24.1961 19.3594 24.3877 19.4175 24.5507 19.5264C24.7136 19.6353 24.8406 19.79 24.9156 19.9711C24.9906 20.1522 25.0103 20.3514 24.972 20.5436C24.9338 20.7358 24.8394 20.9124 24.7008 21.051C24.5622 21.1896 24.3857 21.2839 24.1935 21.3222C24.0012 21.3604 23.802 21.3408 23.6209 21.2658C23.4399 21.1908 23.2851 21.0638 23.1762 20.9008C23.0673 20.7379 23.0092 20.5463 23.0092 20.3503C23.0092 20.0875 23.1136 19.8354 23.2994 19.6496C23.4853 19.4638 23.7373 19.3594 24.0001 19.3594ZM14.9896 25.3672C15.0938 24.3557 15.5686 23.4185 16.3226 22.7362C17.0766 22.0538 18.0564 21.6746 19.0733 21.6715C21.5367 21.6784 21.5367 23.0469 24.0001 23.0469C26.4636 23.0469 26.4636 21.6788 28.927 21.672C29.9439 21.675 30.9237 22.0543 31.6777 22.7366C32.4316 23.4189 32.9065 24.3561 33.0107 25.3677C33.6011 30.8933 29.6096 35.7646 24.0001 35.7646C18.3906 35.7646 14.3992 30.8933 14.9896 25.3672Z" fill="#098289"/>
<path d="M74.4023 22.2441C70.3008 22.2441 67.7324 19.5 67.7324 14.9492C67.7324 10.4082 70.3203 7.66406 74.4023 7.66406C77.791 7.66406 80.3691 9.8125 80.5938 12.9668H77.7227C77.4492 11.2383 76.1211 10.1055 74.4023 10.1055C72.1758 10.1055 70.7402 11.9707 70.7402 14.9395C70.7402 17.9473 72.1562 19.8027 74.4121 19.8027C76.1602 19.8027 77.4199 18.7773 77.7324 17.1074H80.6035C80.2715 20.252 77.8594 22.2441 74.4023 22.2441ZM82.2539 22V7.9082H85.0566V13.3965H85.1152C85.6719 12.0781 86.8145 11.3359 88.4062 11.3359C90.7305 11.3359 92.0586 12.8398 92.0586 15.2617V22H89.207V15.8672C89.207 14.5195 88.543 13.6992 87.2441 13.6992C85.8965 13.6992 85.1055 14.6465 85.1055 16.0234V22H82.2539ZM97.9277 20.1055C99.168 20.1055 100.193 19.2949 100.193 18.1621V17.4004L97.9863 17.5371C96.9219 17.6152 96.3164 18.0938 96.3164 18.8359C96.3164 19.6172 96.9609 20.1055 97.9277 20.1055ZM96.9902 22.166C94.998 22.166 93.4844 20.877 93.4844 18.9922C93.4844 17.0879 94.9492 15.9844 97.5566 15.8281L100.193 15.6719V14.9785C100.193 14.002 99.5098 13.4355 98.4355 13.4355C97.3711 13.4355 96.6973 13.9629 96.5605 14.7344H93.9531C94.0605 12.7031 95.7891 11.3066 98.5625 11.3066C101.248 11.3066 102.996 12.6934 102.996 14.8027V22H100.242V20.3984H100.184C99.5977 21.5117 98.2988 22.166 96.9902 22.166ZM105.604 9.11914H108.455V11.5312H110.389V13.6797H108.455V18.6895C108.455 19.4902 108.846 19.8711 109.686 19.8711C109.939 19.8711 110.203 19.8516 110.379 19.8223V21.9219C110.086 21.9902 109.598 22.0391 109.021 22.0391C106.561 22.0391 105.604 21.2188 105.604 19.1777V13.6797H104.129V11.5312H105.604V9.11914ZM118.172 22.166C116.639 22.166 115.467 21.4238 114.891 20.2031H114.832V22H112.02V7.9082H114.871V13.3477H114.93C115.506 12.1074 116.668 11.3652 118.162 11.3652C120.799 11.3652 122.42 13.3867 122.42 16.7656C122.42 20.1348 120.809 22.166 118.172 22.166ZM117.186 13.6504C115.809 13.6504 114.861 14.8906 114.861 16.7656C114.861 18.6602 115.799 19.8711 117.186 19.8711C118.611 19.8711 119.5 18.6797 119.5 16.7656C119.5 14.8613 118.602 13.6504 117.186 13.6504ZM128.709 22.2246C125.545 22.2246 123.523 20.1934 123.523 16.7559C123.523 13.3672 125.574 11.3066 128.709 11.3066C131.844 11.3066 133.895 13.3574 133.895 16.7559C133.895 20.2031 131.873 22.2246 128.709 22.2246ZM128.709 20.0469C130.105 20.0469 130.994 18.8652 130.994 16.7656C130.994 14.6855 130.096 13.4844 128.709 13.4844C127.322 13.4844 126.414 14.6855 126.414 16.7656C126.414 18.8652 127.303 20.0469 128.709 20.0469ZM136.131 9.11914H138.982V11.5312H140.916V13.6797H138.982V18.6895C138.982 19.4902 139.373 19.8711 140.213 19.8711C140.467 19.8711 140.73 19.8516 140.906 19.8223V21.9219C140.613 21.9902 140.125 22.0391 139.549 22.0391C137.088 22.0391 136.131 21.2188 136.131 19.1777V13.6797H134.656V11.5312H136.131V9.11914Z" fill="white"/>
<path d="M67.4717 42.252H68.9824C69.0918 43.2295 70.042 43.8721 71.3408 43.8721C72.585 43.8721 73.4805 43.2295 73.4805 42.3477C73.4805 41.582 72.9404 41.124 71.6621 40.8096L70.3838 40.502C68.5723 40.0645 67.7314 39.2168 67.7314 37.8428C67.7314 36.1406 69.2148 34.9717 71.3203 34.9717C73.4053 34.9717 74.834 36.1406 74.8818 37.8428H73.3916C73.3027 36.8584 72.4893 36.2637 71.2998 36.2637C70.1104 36.2637 69.2969 36.8652 69.2969 37.7402C69.2969 38.4375 69.8164 38.8477 71.0879 39.1621L72.1748 39.4287C74.1982 39.9072 75.0391 40.7207 75.0391 42.1631C75.0391 44.0088 73.5693 45.1641 71.2314 45.1641C69.0439 45.1641 67.5674 44.0361 67.4717 42.252ZM82.4014 37.8086V45H80.9863V43.7832H80.9521C80.5557 44.6445 79.8242 45.1299 78.7236 45.1299C77.1582 45.1299 76.2012 44.1113 76.2012 42.4639V37.8086H77.6777V42.1768C77.6777 43.2705 78.1973 43.8584 79.2158 43.8584C80.2822 43.8584 80.9248 43.1201 80.9248 41.999V37.8086H82.4014ZM87.6104 37.6924C89.4355 37.6924 90.6387 39.1279 90.6387 41.4043C90.6387 43.6807 89.4424 45.123 87.6377 45.123C86.6055 45.123 85.7852 44.6172 85.375 43.8174H85.3408V47.3789H83.8643V37.8086H85.293V39.0459H85.3203C85.7441 38.2188 86.5713 37.6924 87.6104 37.6924ZM87.2207 43.8721C88.3896 43.8721 89.1211 42.915 89.1211 41.4043C89.1211 39.9004 88.3896 38.9365 87.2207 38.9365C86.0928 38.9365 85.334 39.9209 85.334 41.4043C85.334 42.9014 86.0859 43.8721 87.2207 43.8721ZM95.5264 37.6924C97.3516 37.6924 98.5547 39.1279 98.5547 41.4043C98.5547 43.6807 97.3584 45.123 95.5537 45.123C94.5215 45.123 93.7012 44.6172 93.291 43.8174H93.2568V47.3789H91.7803V37.8086H93.209V39.0459H93.2363C93.6602 38.2188 94.4873 37.6924 95.5264 37.6924ZM95.1367 43.8721C96.3057 43.8721 97.0371 42.915 97.0371 41.4043C97.0371 39.9004 96.3057 38.9365 95.1367 38.9365C94.0088 38.9365 93.25 39.9209 93.25 41.4043C93.25 42.9014 94.002 43.8721 95.1367 43.8721ZM102.786 45.1367C100.729 45.1367 99.375 43.7217 99.375 41.4043C99.375 39.0938 100.735 37.6787 102.786 37.6787C104.837 37.6787 106.197 39.0938 106.197 41.4043C106.197 43.7217 104.844 45.1367 102.786 45.1367ZM102.786 43.9199C103.948 43.9199 104.693 43.0039 104.693 41.4043C104.693 39.8115 103.941 38.8955 102.786 38.8955C101.631 38.8955 100.879 39.8115 100.879 41.4043C100.879 43.0039 101.631 43.9199 102.786 43.9199ZM107.339 45V37.8086H108.747V39.0322H108.781C109.021 38.1914 109.663 37.6924 110.511 37.6924C110.723 37.6924 110.907 37.7266 111.017 37.7471V39.1211C110.9 39.0732 110.641 39.0391 110.354 39.0391C109.403 39.0391 108.815 39.6748 108.815 40.6934V45H107.339ZM112.363 36.1064H113.847V37.8086H115.214V38.9775H113.847V42.9424C113.847 43.5645 114.12 43.8447 114.722 43.8447C114.872 43.8447 115.111 43.8311 115.207 43.8105V44.9795C115.043 45.0205 114.715 45.0479 114.387 45.0479C112.931 45.0479 112.363 44.4941 112.363 43.1064V38.9775H111.317V37.8086H112.363V36.1064ZM125.878 45L124.976 42.334H121.216L120.313 45H118.721L122.282 35.1357H123.937L127.498 45H125.878ZM123.075 36.7764L121.605 41.1035H124.586L123.116 36.7764H123.075ZM131.278 43.8037C132.434 43.8037 133.192 42.8672 133.192 41.3838C133.192 39.9072 132.434 38.9365 131.278 38.9365C130.144 38.9365 129.405 39.8867 129.405 41.3838C129.405 42.8877 130.144 43.8037 131.278 43.8037ZM131.292 47.707C129.597 47.707 128.339 46.8047 128.154 45.5605H129.638C129.85 46.1621 130.506 46.5586 131.347 46.5586C132.502 46.5586 133.186 45.9023 133.186 44.918V43.7354H133.158C132.755 44.5146 131.907 45.0273 130.882 45.0273C129.077 45.0273 127.895 43.6191 127.895 41.377C127.895 39.1143 129.07 37.6924 130.916 37.6924C131.935 37.6924 132.769 38.2051 133.206 39.0391H133.233V37.8086H134.669V44.8701C134.669 46.5859 133.343 47.707 131.292 47.707ZM139.14 38.8682C138.107 38.8682 137.383 39.6543 137.308 40.7412H140.903C140.869 39.6406 140.172 38.8682 139.14 38.8682ZM140.896 42.8877H142.298C142.093 44.2002 140.849 45.1367 139.201 45.1367C137.089 45.1367 135.811 43.708 135.811 41.4385C135.811 39.1826 137.109 37.6787 139.14 37.6787C141.136 37.6787 142.38 39.0869 142.38 41.2676V41.7734H137.301V41.8623C137.301 43.1133 138.053 43.9404 139.235 43.9404C140.076 43.9404 140.698 43.5166 140.896 42.8877ZM143.528 45V37.8086H144.937V39.0117H144.971C145.36 38.1914 146.126 37.6855 147.233 37.6855C148.819 37.6855 149.729 38.6973 149.729 40.3447V45H148.245V40.6318C148.245 39.5518 147.739 38.957 146.714 38.957C145.675 38.957 145.005 39.6953 145.005 40.8096V45H143.528ZM151.588 36.1064H153.071V37.8086H154.438V38.9775H153.071V42.9424C153.071 43.5645 153.345 43.8447 153.946 43.8447C154.097 43.8447 154.336 43.8311 154.432 43.8105V44.9795C154.268 45.0205 153.939 45.0479 153.611 45.0479C152.155 45.0479 151.588 44.4941 151.588 43.1064V38.9775H150.542V37.8086H151.588V36.1064ZM163.045 41.6641H158.561V40.3311H163.045V41.6641ZM177.571 45H176.17V37.7402H176.122L173.148 44.9248H172.014L169.033 37.7402H168.985V45H167.591V35.1357H169.361L172.554 42.9219H172.608L175.794 35.1357H177.571V45ZM182.22 38.8682C181.188 38.8682 180.463 39.6543 180.388 40.7412H183.983C183.949 39.6406 183.252 38.8682 182.22 38.8682ZM183.977 42.8877H185.378C185.173 44.2002 183.929 45.1367 182.281 45.1367C180.169 45.1367 178.891 43.708 178.891 41.4385C178.891 39.1826 180.189 37.6787 182.22 37.6787C184.216 37.6787 185.46 39.0869 185.46 41.2676V41.7734H180.381V41.8623C180.381 43.1133 181.133 43.9404 182.315 43.9404C183.156 43.9404 183.778 43.5166 183.977 42.8877ZM189.309 45.123C187.49 45.123 186.287 43.6738 186.287 41.4043C186.287 39.1348 187.49 37.6924 189.295 37.6924C190.327 37.6924 191.147 38.2119 191.551 39.0049H191.578V35.1357H193.062V45H191.626V43.7764H191.599C191.175 44.5967 190.354 45.123 189.309 45.123ZM189.698 38.9365C188.529 38.9365 187.798 39.8936 187.798 41.4043C187.798 42.9219 188.529 43.8721 189.698 43.8721C190.833 43.8721 191.592 42.9082 191.592 41.4043C191.592 39.9141 190.833 38.9365 189.698 38.9365ZM194.627 45V37.8086H196.104V45H194.627ZM195.365 36.7559C194.894 36.7559 194.511 36.3799 194.511 35.915C194.511 35.4434 194.894 35.0674 195.365 35.0674C195.844 35.0674 196.227 35.4434 196.227 35.915C196.227 36.3799 195.844 36.7559 195.365 36.7559ZM203.787 40.2832H202.379C202.229 39.5176 201.654 38.9092 200.69 38.9092C199.549 38.9092 198.797 39.8594 198.797 41.4043C198.797 42.9834 199.556 43.8994 200.704 43.8994C201.613 43.8994 202.208 43.4004 202.379 42.5664H203.801C203.644 44.0977 202.42 45.1367 200.69 45.1367C198.633 45.1367 197.293 43.7285 197.293 41.4043C197.293 39.1211 198.633 37.6787 200.677 37.6787C202.529 37.6787 203.657 38.8682 203.787 40.2832ZM207.362 43.9541C208.395 43.9541 209.201 43.2432 209.201 42.3066V41.7393L207.431 41.8486C206.549 41.9102 206.05 42.2998 206.05 42.915C206.05 43.5439 206.569 43.9541 207.362 43.9541ZM206.952 45.123C205.544 45.123 204.56 44.248 204.56 42.9561C204.56 41.6982 205.523 40.9258 207.232 40.8301L209.201 40.7139V40.1602C209.201 39.3604 208.661 38.8818 207.759 38.8818C206.904 38.8818 206.371 39.292 206.241 39.9346H204.847C204.929 38.6357 206.036 37.6787 207.813 37.6787C209.557 37.6787 210.671 38.6016 210.671 40.0439V45H209.256V43.8174H209.222C208.805 44.6172 207.896 45.123 206.952 45.123ZM212.161 45V35.1357H213.638V45H212.161ZM224.603 45L223.7 42.334H219.94L219.038 45H217.445L221.007 35.1357H222.661L226.223 45H224.603ZM221.8 36.7764L220.33 41.1035H223.311L221.841 36.7764H221.8ZM230.878 37.6924C232.703 37.6924 233.906 39.1279 233.906 41.4043C233.906 43.6807 232.71 45.123 230.905 45.123C229.873 45.123 229.053 44.6172 228.643 43.8174H228.608V47.3789H227.132V37.8086H228.561V39.0459H228.588C229.012 38.2188 229.839 37.6924 230.878 37.6924ZM230.488 43.8721C231.657 43.8721 232.389 42.915 232.389 41.4043C232.389 39.9004 231.657 38.9365 230.488 38.9365C229.36 38.9365 228.602 39.9209 228.602 41.4043C228.602 42.9014 229.354 43.8721 230.488 43.8721ZM238.794 37.6924C240.619 37.6924 241.822 39.1279 241.822 41.4043C241.822 43.6807 240.626 45.123 238.821 45.123C237.789 45.123 236.969 44.6172 236.559 43.8174H236.524V47.3789H235.048V37.8086H236.477V39.0459H236.504C236.928 38.2188 237.755 37.6924 238.794 37.6924ZM238.404 43.8721C239.573 43.8721 240.305 42.915 240.305 41.4043C240.305 39.9004 239.573 38.9365 238.404 38.9365C237.276 38.9365 236.518 39.9209 236.518 41.4043C236.518 42.9014 237.27 43.8721 238.404 43.8721ZM246.054 45.1367C243.996 45.1367 242.643 43.7217 242.643 41.4043C242.643 39.0938 244.003 37.6787 246.054 37.6787C248.104 37.6787 249.465 39.0938 249.465 41.4043C249.465 43.7217 248.111 45.1367 246.054 45.1367ZM246.054 43.9199C247.216 43.9199 247.961 43.0039 247.961 41.4043C247.961 39.8115 247.209 38.8955 246.054 38.8955C244.898 38.8955 244.146 39.8115 244.146 41.4043C244.146 43.0039 244.898 43.9199 246.054 43.9199ZM250.654 45V37.8086H252.131V45H250.654ZM251.393 36.7559C250.921 36.7559 250.538 36.3799 250.538 35.915C250.538 35.4434 250.921 35.0674 251.393 35.0674C251.871 35.0674 252.254 35.4434 252.254 35.915C252.254 36.3799 251.871 36.7559 251.393 36.7559ZM253.642 45V37.8086H255.05V39.0117H255.084C255.474 38.1914 256.239 37.6855 257.347 37.6855C258.933 37.6855 259.842 38.6973 259.842 40.3447V45H258.358V40.6318C258.358 39.5518 257.853 38.957 256.827 38.957C255.788 38.957 255.118 39.6953 255.118 40.8096V45H253.642ZM261.701 36.1064H263.185V37.8086H264.552V38.9775H263.185V42.9424C263.185 43.5645 263.458 43.8447 264.06 43.8447C264.21 43.8447 264.449 43.8311 264.545 43.8105V44.9795C264.381 45.0205 264.053 45.0479 263.725 45.0479C262.269 45.0479 261.701 44.4941 261.701 43.1064V38.9775H260.655V37.8086H261.701V36.1064ZM265.769 45V37.8086H267.177V39.0186H267.211C267.532 38.2188 268.284 37.6855 269.255 37.6855C270.253 37.6855 270.978 38.1982 271.265 39.0938H271.299C271.668 38.2188 272.516 37.6855 273.541 37.6855C274.963 37.6855 275.893 38.6289 275.893 40.0576V45H274.409V40.4131C274.409 39.4834 273.91 38.9502 273.035 38.9502C272.16 38.9502 271.552 39.5996 271.552 40.5088V45H270.103V40.3037C270.103 39.4766 269.576 38.9502 268.742 38.9502C267.867 38.9502 267.245 39.6338 267.245 40.5566V45H265.769ZM280.329 38.8682C279.297 38.8682 278.572 39.6543 278.497 40.7412H282.093C282.059 39.6406 281.361 38.8682 280.329 38.8682ZM282.086 42.8877H283.487C283.282 44.2002 282.038 45.1367 280.391 45.1367C278.278 45.1367 277 43.708 277 41.4385C277 39.1826 278.299 37.6787 280.329 37.6787C282.325 37.6787 283.569 39.0869 283.569 41.2676V41.7734H278.49V41.8623C278.49 43.1133 279.242 43.9404 280.425 43.9404C281.266 43.9404 281.888 43.5166 282.086 42.8877ZM284.718 45V37.8086H286.126V39.0117H286.16C286.55 38.1914 287.315 37.6855 288.423 37.6855C290.009 37.6855 290.918 38.6973 290.918 40.3447V45H289.435V40.6318C289.435 39.5518 288.929 38.957 287.903 38.957C286.864 38.957 286.194 39.6953 286.194 40.8096V45H284.718ZM292.777 36.1064H294.261V37.8086H295.628V38.9775H294.261V42.9424C294.261 43.5645 294.534 43.8447 295.136 43.8447C295.286 43.8447 295.525 43.8311 295.621 43.8105V44.9795C295.457 45.0205 295.129 45.0479 294.801 45.0479C293.345 45.0479 292.777 44.4941 292.777 43.1064V38.9775H291.731V37.8086H292.777V36.1064ZM303.824 45H299.866V35.1357H303.804C305.554 35.1357 306.702 36.1064 306.702 37.5967C306.702 38.6426 305.93 39.5791 304.945 39.7432V39.7979C306.285 39.9482 307.188 40.8984 307.188 42.2109C307.188 43.9473 305.923 45 303.824 45ZM301.397 36.3867V39.333H303.113C304.439 39.333 305.171 38.7861 305.171 37.8086C305.171 36.8926 304.542 36.3867 303.435 36.3867H301.397ZM301.397 43.749H303.51C304.891 43.749 305.622 43.1816 305.622 42.1152C305.622 41.0488 304.87 40.502 303.421 40.502H301.397V43.749ZM311.419 45.1367C309.361 45.1367 308.008 43.7217 308.008 41.4043C308.008 39.0938 309.368 37.6787 311.419 37.6787C313.47 37.6787 314.83 39.0938 314.83 41.4043C314.83 43.7217 313.477 45.1367 311.419 45.1367ZM311.419 43.9199C312.581 43.9199 313.326 43.0039 313.326 41.4043C313.326 39.8115 312.574 38.8955 311.419 38.8955C310.264 38.8955 309.512 39.8115 309.512 41.4043C309.512 43.0039 310.264 43.9199 311.419 43.9199ZM319.062 45.1367C317.004 45.1367 315.65 43.7217 315.65 41.4043C315.65 39.0938 317.011 37.6787 319.062 37.6787C321.112 37.6787 322.473 39.0938 322.473 41.4043C322.473 43.7217 321.119 45.1367 319.062 45.1367ZM319.062 43.9199C320.224 43.9199 320.969 43.0039 320.969 41.4043C320.969 39.8115 320.217 38.8955 319.062 38.8955C317.906 38.8955 317.154 39.8115 317.154 41.4043C317.154 43.0039 317.906 43.9199 319.062 43.9199ZM325.159 40.8916L328.064 37.8086H329.801L326.82 40.9053L329.917 45H328.201L325.761 41.8076L325.146 42.416V45H323.669V35.1357H325.146V40.8916H325.159ZM330.73 45V37.8086H332.207V45H330.73ZM331.469 36.7559C330.997 36.7559 330.614 36.3799 330.614 35.915C330.614 35.4434 330.997 35.0674 331.469 35.0674C331.947 35.0674 332.33 35.4434 332.33 35.915C332.33 36.3799 331.947 36.7559 331.469 36.7559ZM333.718 45V37.8086H335.126V39.0117H335.16C335.55 38.1914 336.315 37.6855 337.423 37.6855C339.009 37.6855 339.918 38.6973 339.918 40.3447V45H338.435V40.6318C338.435 39.5518 337.929 38.957 336.903 38.957C335.864 38.957 335.194 39.6953 335.194 40.8096V45H333.718ZM344.409 43.8037C345.564 43.8037 346.323 42.8672 346.323 41.3838C346.323 39.9072 345.564 38.9365 344.409 38.9365C343.274 38.9365 342.536 39.8867 342.536 41.3838C342.536 42.8877 343.274 43.8037 344.409 43.8037ZM344.423 47.707C342.728 47.707 341.47 46.8047 341.285 45.5605H342.769C342.98 46.1621 343.637 46.5586 344.478 46.5586C345.633 46.5586 346.316 45.9023 346.316 44.918V43.7354H346.289C345.886 44.5146 345.038 45.0273 344.013 45.0273C342.208 45.0273 341.025 43.6191 341.025 41.377C341.025 39.1143 342.201 37.6924 344.047 37.6924C345.065 37.6924 345.899 38.2051 346.337 39.0391H346.364V37.8086H347.8V44.8701C347.8 46.5859 346.474 47.707 344.423 47.707Z" fill="white"/>
</svg>
