<svg width="194" height="24" viewBox="0 0 194 24" fill="none" xmlns="http://www.w3.org/2000/svg">
<path d="M14.2773 19.5614H6.00382C5.68679 19.5614 5.42898 19.3063 5.42898 18.993V6.53815C5.42898 6.24025 5.65688 5.98768 5.94738 5.9627C5.95941 5.96178 5.99241 5.96085 6.00382 5.95715H8.98978C8.93019 6.48326 8.70071 6.92056 8.38901 7.13026C8.34005 6.83729 8.17032 6.61587 7.95842 6.61587C7.7087 6.61587 7.50628 6.91716 7.50628 7.28877C7.50628 8.05051 8.22788 8.22977 8.38376 7.48599C8.87379 7.27243 9.23283 6.69112 9.30465 5.95715H13.0223C12.9608 6.50038 12.7182 6.94847 12.3911 7.14969C12.3469 6.84716 12.1744 6.61587 11.9579 6.61587C11.7082 6.61587 11.5058 6.91716 11.5058 7.28877C11.5058 8.04026 12.2158 8.23095 12.3812 7.50094C12.889 7.30064 13.2636 6.70869 13.3371 5.95715H17.0551C16.99 6.53199 16.7207 6.9958 16.3648 7.1776C16.328 6.86104 16.151 6.61587 15.9278 6.61587C15.6781 6.61587 15.4757 6.91716 15.4757 7.28877C15.4757 8.03114 16.167 8.22561 16.3473 7.52947C16.8893 7.35739 17.2931 6.74185 17.3699 5.95715H18.2311C18.5444 5.95715 18.7995 6.21774 18.7995 6.53815V13.3844C18.7995 13.4716 18.8701 13.5423 18.9574 13.5423C19.0446 13.5423 19.1152 13.4716 19.1152 13.3844V6.53815C19.1152 6.04381 18.7187 5.64136 18.2311 5.64136H17.3851C17.3662 4.62121 16.7711 3.79813 16.0388 3.79813C15.3089 3.79813 14.7158 4.62121 14.697 5.64136H13.3523C13.3334 4.62121 12.7383 3.79813 12.006 3.79813C11.2761 3.79813 10.683 4.62121 10.6643 5.64136H9.3198C9.30095 4.62121 8.7058 3.79813 7.97318 3.79813C7.24331 3.79813 6.65054 4.62121 6.63177 5.64136H6.00382C5.9702 5.64136 5.92826 5.64136 5.92055 5.64815C5.76886 5.66094 5.63622 5.72401 5.51622 5.80542H4.65843C4.25421 5.80542 3.92578 6.13386 3.92578 6.53815V18.9929C3.92578 19.3908 4.25421 19.7254 4.65843 19.7254H5.50569C5.64797 19.821 5.81944 19.8772 6.00382 19.8772H14.2773C14.3645 19.8772 14.4351 19.8066 14.4351 19.7193C14.4351 19.632 14.3645 19.5614 14.2773 19.5614ZM16.0388 4.11392C16.5981 4.11392 17.0523 4.79515 17.0696 5.64136H15.0126C15.0297 4.79515 15.4819 4.11392 16.0388 4.11392ZM12.006 4.11392C12.5653 4.11392 13.0195 4.79515 13.0368 5.64136H10.9798C10.9969 4.79515 11.4491 4.11392 12.006 4.11392ZM7.97318 4.11392C8.53252 4.11392 8.98705 4.79515 9.00432 5.64136H6.94729C6.96441 4.79515 7.41658 4.11392 7.97318 4.11392Z" fill="#03585D"/>
<path d="M18.3349 8.71877C18.3349 8.6315 18.2643 8.56088 18.177 8.56088H6.44842C6.36115 8.56088 6.29053 8.6315 6.29053 8.71877C6.29053 8.80604 6.36115 8.87667 6.44842 8.87667H18.177C18.2643 8.87667 18.3349 8.80604 18.3349 8.71877ZM9.42992 11.3629C9.42992 11.028 9.16748 10.7659 8.83257 10.7659H7.66871C7.3338 10.7659 7.07167 11.028 7.07167 11.3629V12.6066C7.07167 12.9329 7.33936 13.1981 7.66871 13.1981H8.83257C9.16193 13.1981 9.42992 12.9329 9.42992 12.6066V11.3629ZM9.11413 12.6066C9.11413 12.7611 8.99047 12.8823 8.83257 12.8823H7.66871C7.51113 12.8823 7.38746 12.7611 7.38746 12.6066V11.3629C7.38746 11.2053 7.51113 11.0816 7.66871 11.0816H8.83257C8.99047 11.0816 9.11413 11.2053 9.11413 11.3629V12.6066ZM13.2965 11.3629C13.2965 11.028 13.034 10.7659 12.6991 10.7659H11.5353C11.2004 10.7659 10.9382 11.028 10.9382 11.3629V12.6066C10.9382 12.9329 11.2059 13.1981 11.5353 13.1981H12.6991C13.0285 13.1981 13.2965 12.9329 13.2965 12.6066V11.3629ZM12.9807 12.6066C12.9807 12.7611 12.857 12.8823 12.6991 12.8823H11.5353C11.3777 12.8823 11.254 12.7611 11.254 12.6066V11.3629C11.254 11.2053 11.3777 11.0816 11.5353 11.0816H12.6991C12.857 11.0816 12.9807 11.2053 12.9807 11.3629V12.6066ZM15.4019 10.7659C15.0669 10.7659 14.8048 11.028 14.8048 11.3629V12.6066C14.8048 12.9329 15.0725 13.1981 15.4019 13.1981H16.5657C16.8951 13.1981 17.1631 12.9329 17.1631 12.6066V11.3629C17.1631 11.028 16.9006 10.7659 16.5657 10.7659H15.4019ZM16.8473 11.3629V12.6066C16.8473 12.7611 16.7236 12.8823 16.5657 12.8823H15.4019C15.2443 12.8823 15.1206 12.7611 15.1206 12.6066V11.3629C15.1206 11.2053 15.2443 11.0816 15.4019 11.0816H16.5657C16.7236 11.0816 16.8473 11.2053 16.8473 11.3629ZM7.66871 14.4579C7.3338 14.4579 7.07167 14.7203 7.07167 15.0552V16.2986C7.07167 16.6249 7.33936 16.8901 7.66871 16.8901H8.83257C9.16193 16.8901 9.42992 16.6249 9.42992 16.2986V15.0552C9.42992 14.7203 9.16748 14.4579 8.83257 14.4579H7.66871ZM9.11413 15.0552V16.2986C9.11413 16.4531 8.99047 16.5743 8.83257 16.5743H7.66871C7.51113 16.5743 7.38746 16.4531 7.38746 16.2986V15.0552C7.38746 14.8973 7.51113 14.7737 7.66871 14.7737H8.83257C8.99047 14.7737 9.11413 14.8973 9.11413 15.0552ZM11.5353 14.4579C11.2004 14.4579 10.9382 14.7203 10.9382 15.0552V16.2986C10.9382 16.6249 11.2059 16.8901 11.5353 16.8901H12.6991C13.0285 16.8901 13.2965 16.6249 13.2965 16.2986V15.0552C13.2965 14.7203 13.034 14.4579 12.6991 14.4579H11.5353ZM12.9807 15.0552V16.2986C12.9807 16.4531 12.857 16.5743 12.6991 16.5743H11.5353C11.3777 16.5743 11.254 16.4531 11.254 16.2986V15.0552C11.254 14.8973 11.3777 14.7737 11.5353 14.7737H12.6991C12.857 14.7737 12.9807 14.8973 12.9807 15.0552ZM20.125 13.9661C19.2531 13.9606 18.5115 14.4147 18.2092 15.0645C17.9014 14.4113 17.151 13.9472 16.2694 13.9415C15.1102 13.9341 14.17 14.7252 14.17 15.7119C14.17 18.3328 18.2092 20.4468 18.2092 20.4468C18.2092 20.4468 22.1842 18.3195 22.1842 15.7371C22.1842 14.7649 21.263 13.9734 20.125 13.9661ZM19.6598 17.8366C19.7378 17.8757 19.769 17.9707 19.7298 18.0484C19.6902 18.1272 19.5949 18.1574 19.518 18.1184L18.3646 17.5371V18.6772C18.3646 18.7645 18.294 18.8351 18.2067 18.8351C18.1194 18.8351 18.0488 18.7645 18.0488 18.6772V17.5371C16.8708 18.1239 16.8886 18.1385 16.8174 18.1385C16.6518 18.1385 16.5984 17.914 16.7465 17.8397L17.8561 17.2809L16.7465 16.7218C16.5611 16.6287 16.6996 16.3463 16.8883 16.4399L18.0488 17.0246V15.8848C18.0488 15.7975 18.1194 15.7269 18.2067 15.7269C18.294 15.7269 18.3646 15.7975 18.3646 15.8848V17.0249L19.518 16.4442C19.595 16.405 19.6906 16.4359 19.7298 16.5142C19.769 16.5919 19.7378 16.6869 19.6598 16.7261L18.5575 17.281L19.6598 17.8366ZM3.11845 5.47175L2.02429 5.10169C1.82703 5.03494 1.72471 5.33345 1.92313 5.40082L3.0173 5.77089C3.21581 5.83706 3.31614 5.53888 3.11845 5.47175ZM3.49005 4.43618C3.37088 4.26552 3.11137 4.44604 3.23163 4.61752C3.60526 5.11346 3.6168 5.25526 3.76174 5.25526C3.88766 5.25526 3.965 5.11228 3.89096 5.0067L3.49005 4.43618ZM4.85961 4.83524V3.70993C4.85961 3.50087 4.54382 3.5011 4.54382 3.70993V4.83524C4.54382 5.04429 4.85961 5.04407 4.85961 4.83524Z" fill="#03585D"/>
<path d="M50.8301 18.5H48.4658V9.93945H48.3955L44.9502 18.377H43.2803L39.835 9.93945H39.7646V18.5H37.4004V5.81738H40.4766L44.0801 14.8086H44.1504L47.7539 5.81738H50.8301V18.5ZM56.9473 10.7744C55.8223 10.7744 55.0137 11.627 54.9258 12.8047H58.9248C58.8721 11.6006 58.0898 10.7744 56.9473 10.7744ZM58.96 15.6172H61.3154C61.0342 17.4629 59.3467 18.7021 57.0176 18.7021C54.1172 18.7021 52.377 16.8477 52.377 13.833C52.377 10.8271 54.1348 8.87598 56.9209 8.87598C59.6631 8.87598 61.3945 10.7305 61.3945 13.5957V14.3779H54.8994V14.5361C54.8994 15.8809 55.752 16.8037 57.0615 16.8037C58.002 16.8037 58.7227 16.3379 58.96 15.6172ZM66.2197 18.6494C63.8643 18.6494 62.3789 16.7861 62.3789 13.7715C62.3789 10.7832 63.873 8.92871 66.2373 8.92871C67.5996 8.92871 68.6543 9.64941 69.1113 10.6953H69.1641V5.81738H71.7305V18.5H69.1992V16.8828H69.1553C68.6982 17.9199 67.6084 18.6494 66.2197 18.6494ZM67.0898 10.9854C65.7979 10.9854 65.0068 12.0664 65.0068 13.7891C65.0068 15.5205 65.7979 16.584 67.0898 16.584C68.3643 16.584 69.1816 15.5117 69.1816 13.7891C69.1816 12.0752 68.3643 10.9854 67.0898 10.9854ZM73.4883 18.5V9.07812H76.0547V18.5H73.4883ZM74.7715 8.04102C73.998 8.04102 73.4004 7.45215 73.4004 6.71387C73.4004 5.9668 73.998 5.38672 74.7715 5.38672C75.5449 5.38672 76.1426 5.9668 76.1426 6.71387C76.1426 7.45215 75.5449 8.04102 74.7715 8.04102ZM86.3291 12.585H83.9473C83.7979 11.5918 83.1387 10.8887 82.084 10.8887C80.8184 10.8887 80.0273 11.9609 80.0273 13.7803C80.0273 15.6348 80.8184 16.6895 82.0928 16.6895C83.1211 16.6895 83.7891 16.0742 83.9473 15.0459H86.3379C86.2061 17.2695 84.5449 18.7021 82.0664 18.7021C79.2275 18.7021 77.4258 16.8564 77.4258 13.7803C77.4258 10.7568 79.2275 8.87598 82.0488 8.87598C84.5977 8.87598 86.2148 10.4492 86.3291 12.585ZM91.2158 16.7949C92.332 16.7949 93.2549 16.0654 93.2549 15.0459V14.3604L91.2686 14.4834C90.3105 14.5537 89.7656 14.9844 89.7656 15.6523C89.7656 16.3555 90.3457 16.7949 91.2158 16.7949ZM90.3721 18.6494C88.5791 18.6494 87.2168 17.4893 87.2168 15.793C87.2168 14.0791 88.5352 13.0859 90.8818 12.9453L93.2549 12.8047V12.1807C93.2549 11.3018 92.6396 10.792 91.6729 10.792C90.7148 10.792 90.1084 11.2666 89.9854 11.9609H87.6387C87.7354 10.1328 89.291 8.87598 91.7871 8.87598C94.2041 8.87598 95.7773 10.124 95.7773 12.0225V18.5H93.2988V17.0586H93.2461C92.7188 18.0605 91.5498 18.6494 90.3721 18.6494ZM97.5 18.5V5.81738H100.066V18.5H97.5ZM105.586 5.81738H110.429C114.234 5.81738 116.476 8.08496 116.476 12.1104C116.476 16.1357 114.234 18.5 110.429 18.5H105.586V5.81738ZM108.24 8.00586V16.3027H110.112C112.485 16.3027 113.769 14.8613 113.769 12.1191C113.769 9.46484 112.45 8.00586 110.112 8.00586H108.24ZM121.556 16.7949C122.672 16.7949 123.595 16.0654 123.595 15.0459V14.3604L121.608 14.4834C120.65 14.5537 120.105 14.9844 120.105 15.6523C120.105 16.3555 120.686 16.7949 121.556 16.7949ZM120.712 18.6494C118.919 18.6494 117.557 17.4893 117.557 15.793C117.557 14.0791 118.875 13.0859 121.222 12.9453L123.595 12.8047V12.1807C123.595 11.3018 122.979 10.792 122.013 10.792C121.055 10.792 120.448 11.2666 120.325 11.9609H117.979C118.075 10.1328 119.631 8.87598 122.127 8.87598C124.544 8.87598 126.117 10.124 126.117 12.0225V18.5H123.639V17.0586H123.586C123.059 18.0605 121.89 18.6494 120.712 18.6494ZM127.62 11.8467C127.62 10.0537 129.176 8.87598 131.593 8.87598C133.957 8.87598 135.495 10.0713 135.53 11.8994H133.166C133.113 11.1436 132.507 10.6777 131.558 10.6777C130.67 10.6777 130.09 11.082 130.09 11.6885C130.09 12.1543 130.494 12.4707 131.32 12.6641L133.122 13.0508C135.012 13.4727 135.776 14.2197 135.776 15.626C135.776 17.4805 134.071 18.7021 131.584 18.7021C129.07 18.7021 127.523 17.4893 127.383 15.6523H129.888C130.011 16.4434 130.635 16.9004 131.654 16.9004C132.63 16.9004 133.219 16.5137 133.219 15.8984C133.219 15.4238 132.902 15.1602 132.059 14.958L130.318 14.5713C128.534 14.167 127.62 13.2354 127.62 11.8467ZM137.121 18.5V5.81738H139.644V10.7568H139.696C140.197 9.57031 141.226 8.90234 142.658 8.90234C144.75 8.90234 145.945 10.2559 145.945 12.4355V18.5H143.379V12.9805C143.379 11.7676 142.781 11.0293 141.612 11.0293C140.399 11.0293 139.688 11.8818 139.688 13.1211V18.5H137.121ZM153.188 18.6494C151.808 18.6494 150.753 17.9814 150.234 16.8828H150.182V18.5H147.65V5.81738H150.217V10.7129H150.27C150.788 9.59668 151.834 8.92871 153.179 8.92871C155.552 8.92871 157.011 10.748 157.011 13.7891C157.011 16.8213 155.561 18.6494 153.188 18.6494ZM152.3 10.9854C151.061 10.9854 150.208 12.1016 150.208 13.7891C150.208 15.4941 151.052 16.584 152.3 16.584C153.583 16.584 154.383 15.5117 154.383 13.7891C154.383 12.0752 153.574 10.9854 152.3 10.9854ZM162.671 18.7021C159.823 18.7021 158.004 16.874 158.004 13.7803C158.004 10.7305 159.85 8.87598 162.671 8.87598C165.492 8.87598 167.338 10.7217 167.338 13.7803C167.338 16.8828 165.519 18.7021 162.671 18.7021ZM162.671 16.7422C163.928 16.7422 164.728 15.6787 164.728 13.7891C164.728 11.917 163.919 10.8359 162.671 10.8359C161.423 10.8359 160.605 11.917 160.605 13.7891C160.605 15.6787 161.405 16.7422 162.671 16.7422ZM172.304 16.7949C173.42 16.7949 174.343 16.0654 174.343 15.0459V14.3604L172.356 14.4834C171.398 14.5537 170.854 14.9844 170.854 15.6523C170.854 16.3555 171.434 16.7949 172.304 16.7949ZM171.46 18.6494C169.667 18.6494 168.305 17.4893 168.305 15.793C168.305 14.0791 169.623 13.0859 171.97 12.9453L174.343 12.8047V12.1807C174.343 11.3018 173.728 10.792 172.761 10.792C171.803 10.792 171.196 11.2666 171.073 11.9609H168.727C168.823 10.1328 170.379 8.87598 172.875 8.87598C175.292 8.87598 176.865 10.124 176.865 12.0225V18.5H174.387V17.0586H174.334C173.807 18.0605 172.638 18.6494 171.46 18.6494ZM178.526 18.5V9.07812H181.005V10.7744H181.058C181.392 9.5791 182.191 8.92871 183.299 8.92871C183.598 8.92871 183.853 8.97266 184.028 9.02539V11.2842C183.817 11.1963 183.466 11.1348 183.097 11.1348C181.831 11.1348 181.093 11.9082 181.093 13.2354V18.5H178.526ZM188.265 18.6494C185.909 18.6494 184.424 16.7861 184.424 13.7715C184.424 10.7832 185.918 8.92871 188.282 8.92871C189.645 8.92871 190.699 9.64941 191.156 10.6953H191.209V5.81738H193.775V18.5H191.244V16.8828H191.2C190.743 17.9199 189.653 18.6494 188.265 18.6494ZM189.135 10.9854C187.843 10.9854 187.052 12.0664 187.052 13.7891C187.052 15.5205 187.843 16.584 189.135 16.584C190.409 16.584 191.227 15.5117 191.227 13.7891C191.227 12.0752 190.409 10.9854 189.135 10.9854Z" fill="#171D1B"/>
</svg>
