<svg width="24" height="24" viewBox="0 0 24 24" fill="none" xmlns="http://www.w3.org/2000/svg">
<path fill-rule="evenodd" clip-rule="evenodd" d="M15.75 11.1246V17.625C15.75 18.2463 15.2463 18.75 14.625 18.75H11.8125C11.1912 18.75 10.6875 18.2463 10.6875 17.625V14.8125C10.6875 14.5018 10.4357 14.25 10.125 14.25H7.875C7.56434 14.25 7.3125 14.5018 7.3125 14.8125V17.625C7.3125 18.2463 6.80882 18.75 6.1875 18.75H3.375C2.75368 18.75 2.25 18.2463 2.25 17.625V11.1246C2.24995 10.8098 2.3818 10.5094 2.61352 10.2963L8.23852 4.98914L8.24625 4.98141C8.6754 4.59113 9.33093 4.59113 9.76008 4.98141C9.76248 4.98416 9.76506 4.98674 9.76781 4.98914L15.3928 10.2963C15.6222 10.5105 15.7517 10.8108 15.75 11.1246Z" fill="#414651"/>
</svg>
