<svg width="24" height="24" viewBox="0 0 24 24" fill="none" xmlns="http://www.w3.org/2000/svg">
<g clip-path="url(#clip0_17991_65727)">
<path fill-rule="evenodd" clip-rule="evenodd" d="M21.7191 5.70844C21.1591 5.03413 20.3577 4.6055 19.4859 4.51406C19.3344 3.13539 18.3549 1.98977 17.0165 1.62592C15.6781 1.26207 14.2534 1.75408 13.4247 2.86629C12.5961 3.9785 12.5322 5.48445 13.2638 6.66281C13.2642 6.6653 13.2642 6.66783 13.2638 6.67031L6.67219 13.2666C6.67219 13.2666 6.67219 13.2666 6.66281 13.2666C5.48445 12.535 3.9785 12.5989 2.86629 13.4275C1.75408 14.2562 1.26207 15.6809 1.62592 17.0193C1.98977 18.3577 3.13539 19.3373 4.51406 19.4888C4.66556 20.8674 5.6451 22.013 6.98349 22.3769C8.32189 22.7407 9.74662 22.2487 10.5753 21.1365C11.4039 20.0243 11.4678 18.5184 10.7362 17.34C10.7361 17.3375 10.7361 17.335 10.7362 17.3325L17.3316 10.7362C17.3316 10.7362 17.3316 10.7362 17.3409 10.7362C18.7481 11.6226 20.5913 11.3517 21.684 10.098C22.7766 8.8442 22.7931 6.98133 21.7228 5.70844H21.7191ZM20.5406 9.10875C19.9348 9.80243 18.9149 9.95341 18.1341 9.465C17.5413 9.08888 16.767 9.17418 16.2703 9.67031L9.67031 16.2703C9.17539 16.7679 9.09166 17.5422 9.46875 18.1341C9.90754 18.8399 9.82933 19.7503 9.27659 20.371C8.72385 20.9916 7.8285 21.1744 7.07676 20.8199C6.32502 20.4655 5.89631 19.6585 6.02344 18.8372C6.05743 18.6205 5.99488 18.3998 5.85225 18.2332C5.70962 18.0666 5.5012 17.9708 5.28188 17.9709C5.24326 17.9713 5.20472 17.9744 5.16656 17.9803C4.34615 18.1065 3.54043 17.6782 3.18606 16.9276C2.83169 16.177 3.01303 15.2827 3.63179 14.7294C4.25055 14.1761 5.15946 14.0955 5.86594 14.5312C6.45869 14.9074 7.23302 14.8221 7.72969 14.3259L14.3297 7.72594C14.8227 7.22893 14.9063 6.45701 14.5312 5.86594C14.0925 5.16011 14.1707 4.24965 14.7234 3.629C15.2762 3.00835 16.1715 2.82563 16.9232 3.18006C17.675 3.53449 18.1037 4.34149 17.9766 5.16281C17.9395 5.3995 18.0178 5.63963 18.1872 5.80902C18.3566 5.97842 18.5968 6.0567 18.8334 6.01969C19.6158 5.89309 20.3932 6.27203 20.7754 6.96625C21.1577 7.66047 21.0622 8.52005 20.5369 9.11344L20.5406 9.10875Z" fill="#1D7885"/>
</g>
<defs>
<clipPath id="clip0_17991_65727">
<rect width="24" height="24" fill="white"/>
</clipPath>
</defs>
</svg>
