<svg width="32" height="32" viewBox="0 0 32 32" fill="none" xmlns="http://www.w3.org/2000/svg">
<rect width="32" height="32" rx="6" fill="#DAECED" fill-opacity="0.5"/>
<g clip-path="url(#clip0_18456_5556)">
<path d="M13.9223 16.6788C10.4273 16.6788 7.58105 13.8363 7.58105 10.3375C7.58105 6.8425 10.4273 4 13.9223 4C17.4173 4 20.2636 6.8425 20.2636 10.3412C20.2598 13.8363 17.4173 16.6788 13.9223 16.6788ZM13.9223 5.07625C11.0198 5.07625 8.6573 7.43875 8.6573 10.3412C8.6573 13.2437 11.0198 15.6063 13.9223 15.6063C16.8248 15.6063 19.1873 13.2437 19.1873 10.3412C19.1873 7.435 16.8248 5.07625 13.9223 5.07625Z" fill="#098289"/>
<path d="M5.27844 25.4013C4.98219 25.4013 4.74219 25.1613 4.74219 24.865V24.7038C4.74219 19.6863 8.82594 15.6025 13.8434 15.6025C15.6997 15.6025 17.4884 16.15 19.0222 17.185C19.2697 17.35 19.3334 17.6838 19.1684 17.9313C19.0034 18.1788 18.6697 18.2425 18.4222 18.0775C17.0684 17.1625 15.4859 16.6788 13.8472 16.6788C9.42219 16.6788 5.82219 20.2788 5.82219 24.7038V24.865C5.81469 25.1613 5.57469 25.4013 5.27844 25.4013Z" fill="#098289"/>
<path d="M20.6349 28C20.3386 28 20.0986 27.76 20.0986 27.4637V15.2875C20.0986 14.9912 20.3386 14.7512 20.6349 14.7512C20.9311 14.7512 21.1711 14.9912 21.1711 15.2875V27.4637C21.1711 27.76 20.9311 28 20.6349 28Z" fill="#098289"/>
<path d="M26.7213 21.9138H14.545C14.2488 21.9138 14.0088 21.6738 14.0088 21.3776C14.0088 21.0813 14.2488 20.8413 14.545 20.8413H26.7213C27.0175 20.8413 27.2575 21.0813 27.2575 21.3776C27.2575 21.6738 27.0175 21.9138 26.7213 21.9138Z" fill="#098289"/>
</g>
<defs>
<clipPath id="clip0_18456_5556">
<rect width="24" height="24" fill="white" transform="translate(4 4)"/>
</clipPath>
</defs>
</svg>
