<svg width="60" height="60" viewBox="0 0 60 60" fill="none" xmlns="http://www.w3.org/2000/svg">
<rect width="60" height="60" rx="6" fill="#DAECED" fill-opacity="0.5"/>
<path fill-rule="evenodd" clip-rule="evenodd" d="M27.9844 35.61C32.1121 32.862 33.9538 27.7353 32.5183 22.9888C31.0829 18.2423 26.7088 14.9954 21.75 14.9954C16.7912 14.9954 12.4171 18.2423 10.9817 22.9888C9.5462 27.7353 11.3879 32.862 15.5156 35.61C11.879 36.9503 8.77332 39.4306 6.66188 42.6806C6.35986 43.1295 6.32297 43.7062 6.56532 44.1899C6.80767 44.6736 7.29171 44.9893 7.83206 45.0161C8.37241 45.0429 8.88533 44.7767 9.17438 44.3194C11.9415 40.0634 16.6735 37.4958 21.75 37.4958C26.8265 37.4958 31.5585 40.0634 34.3256 44.3194C34.7834 44.9998 35.7027 45.1864 36.3896 44.7384C37.0765 44.2904 37.2763 43.3738 36.8381 42.6806C34.7267 39.4306 31.621 36.9503 27.9844 35.61ZM13.5 26.25C13.5 21.6937 17.1937 18 21.75 18C26.3063 18 30 21.6937 30 26.25C30 30.8063 26.3063 34.5 21.75 34.5C17.1958 34.4948 13.5052 30.8042 13.5 26.25ZM52.9012 44.7562C52.2074 45.2087 51.2782 45.0131 50.8256 44.3194C48.0616 40.0606 43.3271 37.4932 38.25 37.5C37.4216 37.5 36.75 36.8284 36.75 36C36.75 35.1716 37.4216 34.5 38.25 34.5C41.5726 34.4969 44.5691 32.5008 45.8522 29.436C47.1353 26.3711 46.4547 22.8356 44.1253 20.4662C41.7959 18.0969 38.2725 17.3561 35.1863 18.5869C34.6853 18.8034 34.1063 18.7308 33.6743 18.3973C33.2424 18.0638 33.0256 17.5219 33.1084 16.9825C33.1912 16.4431 33.5604 15.9912 34.0725 15.8025C39.4218 13.6691 45.5184 15.92 48.198 21.0177C50.8776 26.1153 49.2748 32.4134 44.4844 35.61C48.121 36.9503 51.2267 39.4306 53.3381 42.6806C53.7906 43.3745 53.595 44.3037 52.9012 44.7562Z" fill="#098289"/>
</svg>
