<svg width="32" height="32" viewBox="0 0 32 32" fill="none" xmlns="http://www.w3.org/2000/svg">
<g clip-path="url(#clip0_18456_5547)">
<rect width="32" height="32" rx="6" fill="#DAECED" fill-opacity="0.5"/>
<path d="M16.0449 29.589C14.5492 29.5876 13.0807 29.1886 11.7899 28.4329C10.4991 27.6771 9.43242 26.5919 8.69905 25.2883C8.58038 25.077 8.50604 24.8438 8.48058 24.6028C8.45512 24.3618 8.47908 24.1182 8.55099 23.8868C8.62051 23.6612 8.73593 23.4525 8.88998 23.2737C9.04404 23.0949 9.23341 22.9499 9.44619 22.8478C10.6929 22.2213 12.0061 21.7373 13.3612 21.4049C13.7618 21.3108 14.1827 21.3613 14.5498 21.5474C14.9168 21.7334 15.2064 22.0431 15.3674 22.4218L15.6032 22.9733C15.6402 23.0598 15.7018 23.1336 15.7804 23.1854C15.8589 23.2372 15.9509 23.2648 16.045 23.2648C16.1392 23.2648 16.2312 23.2371 16.3097 23.1852C16.3882 23.1334 16.4497 23.0596 16.4867 22.973L16.7225 22.4218C16.8838 22.0434 17.1734 21.7338 17.5403 21.5478C17.9073 21.3617 18.3281 21.311 18.7287 21.4045C20.0837 21.7373 21.3969 22.2213 22.6437 22.8475C22.8565 22.9496 23.0459 23.0949 23.1999 23.2737C23.354 23.4525 23.4694 23.6612 23.5389 23.8868C23.6108 24.1182 23.6348 24.3618 23.6093 24.6028C23.5839 24.8438 23.5095 25.077 23.3908 25.2883C22.6575 26.5919 21.5907 27.6772 20.2999 28.4329C19.0091 29.1886 17.5407 29.5876 16.0449 29.589ZM13.7587 22.6252C13.7216 22.6252 13.6847 22.6294 13.6486 22.6379C12.3849 22.9494 11.1602 23.4021 9.99765 23.9875C9.94082 24.0148 9.89029 24.0537 9.84926 24.1016C9.80824 24.1495 9.77761 24.2054 9.75933 24.2657C9.73878 24.3322 9.73201 24.4022 9.73945 24.4714C9.7469 24.5406 9.76838 24.6076 9.80261 24.6682C10.4248 25.7768 11.3311 26.6997 12.4282 27.342C13.5253 27.9843 14.7736 28.3229 16.0449 28.3229C17.3162 28.3229 18.5646 27.9843 19.6617 27.342C20.7588 26.6997 21.665 25.7768 22.2872 24.6682C22.3215 24.6076 22.3429 24.5406 22.3504 24.4714C22.3578 24.4022 22.3511 24.3322 22.3305 24.2657C22.3122 24.2054 22.2815 24.1495 22.2405 24.1016C22.1995 24.0537 22.149 24.0149 22.0922 23.9875C20.9296 23.4021 19.7049 22.9493 18.4412 22.6376C18.3304 22.6123 18.2142 22.6267 18.1129 22.6782C18.0116 22.7297 17.9315 22.8151 17.8866 22.9195L17.6508 23.471C17.5163 23.7855 17.2925 24.0536 17.007 24.242C16.7216 24.4304 16.387 24.5309 16.045 24.5309C15.703 24.531 15.3684 24.4306 15.083 24.2422C14.7975 24.0538 14.5736 23.7858 14.439 23.4713L14.2032 22.9195C14.166 22.8323 14.1041 22.758 14.0251 22.7057C13.9461 22.6534 13.8534 22.6254 13.7587 22.6252ZM16.0449 20.726C15.1684 20.726 14.3117 20.4661 13.5829 19.9792C12.8541 19.4922 12.2862 18.8001 11.9507 17.9904C11.6153 17.1806 11.5276 16.2896 11.6986 15.43C11.8696 14.5704 12.2916 13.7807 12.9114 13.161C13.5311 12.5412 14.3207 12.1192 15.1804 11.9482C16.04 11.7772 16.931 11.8649 17.7408 12.2003C18.5505 12.5358 19.2426 13.1038 19.7296 13.8325C20.2165 14.5613 20.4764 15.4181 20.4764 16.2945C20.4751 17.4694 20.0078 18.5958 19.177 19.4266C18.3462 20.2574 17.2198 20.7247 16.0449 20.726ZM16.0449 13.1292C15.4189 13.1292 14.8069 13.3148 14.2863 13.6626C13.7658 14.0104 13.3601 14.5048 13.1205 15.0832C12.8809 15.6616 12.8182 16.298 12.9404 16.9121C13.0625 17.5261 13.364 18.0901 13.8067 18.5328C14.2494 18.9755 14.8134 19.2769 15.4274 19.3991C16.0414 19.5212 16.6779 19.4585 17.2562 19.2189C17.8346 18.9794 18.329 18.5736 18.6768 18.0531C19.0246 17.5326 19.2103 16.9206 19.2103 16.2945C19.2093 15.4553 18.8755 14.6508 18.2821 14.0574C17.6887 13.464 16.8841 13.1301 16.0449 13.1292ZM26.3521 13.1289C26.2043 13.1288 26.0591 13.0902 25.9308 13.017L24.2749 12.0707L22.6192 13.0166C22.4747 13.0994 22.309 13.1377 22.1428 13.127C21.9766 13.1163 21.8172 13.0569 21.6845 12.9563C21.5517 12.8557 21.4515 12.7183 21.3963 12.5612C21.341 12.404 21.3332 12.2341 21.3738 12.0726L21.852 10.1582L20.7537 9.05964C20.6349 8.94086 20.5539 8.7895 20.5211 8.62472C20.4883 8.45993 20.5052 8.28912 20.5694 8.13389C20.6337 7.97866 20.7426 7.84599 20.8823 7.75266C21.0221 7.65933 21.1863 7.60953 21.3543 7.60956H22.8242L23.494 6.04698L23.4943 6.04635C23.5599 5.89375 23.6688 5.76372 23.8076 5.67235C23.9463 5.58099 24.1087 5.53229 24.2749 5.53229C24.441 5.53229 24.6034 5.58099 24.7422 5.67235C24.8809 5.76372 24.9898 5.89375 25.0554 6.04635L25.7255 7.60956H27.1954C27.3634 7.60952 27.5277 7.65932 27.6674 7.75265C27.8071 7.84599 27.916 7.97866 27.9803 8.13389C28.0446 8.28912 28.0614 8.45993 28.0286 8.62471C27.9958 8.7895 27.9148 8.94085 27.796 9.05963L26.6977 10.1582L27.1762 12.0729C27.2076 12.1982 27.21 12.3289 27.1832 12.4553C27.1565 12.5816 27.1013 12.7001 27.0218 12.8019C26.9424 12.9037 26.8408 12.9861 26.7247 13.0427C26.6087 13.0994 26.4813 13.1288 26.3521 13.1289ZM24.2749 10.7415C24.4227 10.7415 24.568 10.78 24.6965 10.8531L25.711 11.433L25.4121 10.2367C25.3767 10.0941 25.3788 9.94475 25.4182 9.80317C25.4575 9.66158 25.5329 9.53259 25.6368 9.42872L26.1895 8.8757H25.4504C25.2839 8.87588 25.121 8.82701 24.9821 8.73521C24.8432 8.6434 24.7344 8.51272 24.6693 8.35948L24.2749 7.43924L23.8798 8.36072C23.8146 8.51369 23.7059 8.64409 23.5671 8.73567C23.4283 8.82725 23.2656 8.87595 23.0993 8.87571H22.3602L22.9141 9.42996C23.0178 9.53388 23.0928 9.66284 23.1319 9.80431C23.171 9.94578 23.1729 10.095 23.1373 10.2374L22.8387 11.433L23.8535 10.8531C23.9819 10.7799 24.1271 10.7415 24.2749 10.7415ZM14.0715 10.28C13.9441 10.2799 13.8183 10.2508 13.7038 10.1949C13.5893 10.1389 13.489 10.0576 13.4106 9.95717C13.3322 9.8567 13.2777 9.7397 13.2513 9.61504C13.2248 9.49037 13.2271 9.36132 13.2579 9.23767L13.7083 7.43613L12.6774 6.40492C12.5601 6.28764 12.4803 6.13823 12.4479 5.97557C12.4156 5.81292 12.4322 5.64432 12.4957 5.49111C12.5591 5.33789 12.6666 5.20692 12.8045 5.11477C12.9423 5.02262 13.1044 4.97342 13.2703 4.97339H14.6458L15.274 3.50817L15.2743 3.50754C15.339 3.35687 15.4465 3.22849 15.5835 3.13828C15.7205 3.04808 15.8809 3 16.0449 3C16.2089 3 16.3693 3.04808 16.5063 3.13828C16.6432 3.22849 16.7508 3.35687 16.8155 3.50754L17.444 4.97341H18.8196C18.9854 4.97344 19.1475 5.02264 19.2854 5.11479C19.4233 5.20694 19.5308 5.33791 19.5942 5.49113C19.6577 5.64434 19.6743 5.81294 19.6419 5.97559C19.6096 6.13825 19.5297 6.28766 19.4125 6.40494L18.3816 7.43615L18.8319 9.23738C18.8719 9.39689 18.864 9.56462 18.8094 9.71971C18.7547 9.87479 18.6557 10.0104 18.5246 10.1096C18.3935 10.2089 18.2361 10.2674 18.072 10.2779C17.9079 10.2884 17.7443 10.2505 17.6016 10.1687L16.0449 9.27945L14.4876 10.1691C14.3609 10.2418 14.2175 10.28 14.0715 10.28ZM14.3024 6.23956L14.7748 6.71189C14.8766 6.81434 14.9504 6.94123 14.9891 7.08039C15.0278 7.21955 15.0301 7.36632 14.9958 7.50663L14.7293 8.57277L15.6288 8.05902C15.7558 7.98675 15.8994 7.94877 16.0454 7.94882C16.1915 7.94888 16.335 7.98696 16.4619 8.05933L17.3605 8.57275L17.0944 7.50846C17.0598 7.3679 17.062 7.22081 17.1006 7.08132C17.1393 6.94182 17.2131 6.8146 17.3151 6.71187L17.7874 6.23954H17.1618C16.9976 6.2396 16.8371 6.19144 16.7001 6.10105C16.5631 6.01065 16.4557 5.88201 16.3911 5.73108L16.0449 4.92334L15.6987 5.73108C15.6342 5.88201 15.5268 6.01067 15.3898 6.10107C15.2528 6.19147 15.0922 6.23964 14.9281 6.23958L14.3024 6.23956ZM9.89225 13.1289C9.74447 13.1288 9.59926 13.0902 9.47092 13.017L7.81498 12.0707L6.15935 13.0166C6.01479 13.0994 5.8491 13.1377 5.68289 13.127C5.51669 13.1163 5.35731 13.0569 5.22458 12.9563C5.09185 12.8557 4.99163 12.7183 4.9364 12.5612C4.88116 12.404 4.87334 12.2341 4.91391 12.0726L5.39212 10.1582L4.29383 9.05964C4.175 8.94086 4.09406 8.7895 4.06126 8.62472C4.02846 8.45993 4.04528 8.28912 4.10957 8.13389C4.17387 7.97866 4.28276 7.84599 4.42247 7.75266C4.56218 7.65933 4.72643 7.60953 4.89445 7.60956H6.3643L7.03415 6.04698L7.03446 6.04635C7.10006 5.89375 7.20896 5.76372 7.34768 5.67235C7.48641 5.58099 7.64887 5.53229 7.81498 5.53229C7.98109 5.53229 8.14355 5.58099 8.28228 5.67235C8.421 5.76372 8.5299 5.89375 8.5955 6.04635L9.26566 7.60956H10.7355C10.9035 7.60952 11.0678 7.65932 11.2075 7.75265C11.3472 7.84599 11.4561 7.97866 11.5204 8.13389C11.5847 8.28912 11.6015 8.45993 11.5687 8.62471C11.5359 8.7895 11.455 8.94085 11.3361 9.05963L10.2378 10.1582L10.7164 12.0729C10.7477 12.1982 10.7501 12.3289 10.7233 12.4553C10.6966 12.5816 10.6414 12.7001 10.5619 12.8019C10.4825 12.9037 10.3809 12.9861 10.2648 13.0427C10.1488 13.0994 10.0214 13.1288 9.89225 13.1289ZM7.81498 10.7415C7.96282 10.7415 8.10812 10.78 8.23661 10.8531L9.25112 11.433L8.95221 10.2367C8.91681 10.0941 8.91891 9.94475 8.95829 9.80317C8.99767 9.66158 9.07299 9.53259 9.17695 9.42872L9.72962 8.8757H8.99055C8.82404 8.87588 8.66117 8.82701 8.52225 8.73521C8.38334 8.6434 8.27453 8.51272 8.20942 8.35948L7.81498 7.43924L7.41994 8.36072C7.35475 8.51369 7.24598 8.64409 7.10718 8.73567C6.96839 8.82725 6.80571 8.87595 6.63942 8.87571H5.90031L6.45425 9.42996C6.55791 9.53388 6.63293 9.66284 6.67204 9.80431C6.71114 9.94578 6.713 10.095 6.67743 10.2374L6.37882 11.433L7.39364 10.8531C7.52199 10.7799 7.66722 10.7415 7.81498 10.7415Z" fill="#098289"/>
</g>
<defs>
<clipPath id="clip0_18456_5547">
<rect width="32" height="32" rx="6" fill="white"/>
</clipPath>
</defs>
</svg>
