<svg width="32" height="32" viewBox="0 0 32 32" fill="none" xmlns="http://www.w3.org/2000/svg">
<rect width="32" height="32" rx="6" fill="#DAECED" fill-opacity="0.5"/>
<path d="M12 19C12 19 13.5 21 16 21C18.5 21 20 19 20 19M19 14H19.01M13 14H13.01M25.8 15C24.8734 10.4355 20.8379 7 16 7C10.4771 7 6 11.4771 6 17C6 22.5228 10.4771 27 16 27C20.8379 27 24.8734 23.5645 25.8 19M19.5 14C19.5 14.2761 19.2761 14.5 19 14.5C18.7239 14.5 18.5 14.2761 18.5 14C18.5 13.7239 18.7239 13.5 19 13.5C19.2761 13.5 19.5 13.7239 19.5 14ZM13.5 14C13.5 14.2761 13.2761 14.5 13 14.5C12.7239 14.5 12.5 14.2761 12.5 14C12.5 13.7239 12.7239 13.5 13 13.5C13.2761 13.5 13.5 13.7239 13.5 14Z" stroke="#098289" stroke-width="2" stroke-linecap="round" stroke-linejoin="round"/>
</svg>
