<svg width="945" height="607" viewBox="0 0 945 607" fill="none" xmlns="http://www.w3.org/2000/svg">
<g clip-path="url(#clip0_17928_3888)">
<ellipse cx="602.871" cy="355.293" rx="0.776355" ry="0.699952" fill="white" fill-opacity="0.5"/>
<ellipse cx="77.0164" cy="460.141" rx="0.852073" ry="0.768219" fill="white" fill-opacity="0.3"/>
<ellipse cx="738.839" cy="460.119" rx="0.828268" ry="0.746756" fill="white" fill-opacity="0.4"/>
<ellipse cx="730.227" cy="130.323" rx="0.75469" ry="0.680419" fill="white" fill-opacity="0.5"/>
<ellipse cx="331.882" cy="280.87" rx="0.960645" ry="0.866106" fill="white" fill-opacity="0.3"/>
<ellipse cx="715.143" cy="231.565" rx="0.771358" ry="0.695447" fill="white" fill-opacity="0.5"/>
<ellipse cx="858.196" cy="75.8008" rx="0.687871" ry="0.620176" fill="white" fill-opacity="0.4"/>
<ellipse cx="854.897" cy="113.672" rx="0.671244" ry="0.605185" fill="white" fill-opacity="0.5"/>
<ellipse cx="258.093" cy="304.323" rx="0.709507" ry="0.639683" fill="white" fill-opacity="0.6"/>
<ellipse cx="471.452" cy="493.726" rx="0.677554" ry="0.610874" fill="white" fill-opacity="0.4"/>
<ellipse cx="694.319" cy="12.7034" rx="0.958324" ry="0.864013" fill="white" fill-opacity="0.4"/>
<ellipse cx="416.399" cy="415.674" rx="0.776667" ry="0.700234" fill="white" fill-opacity="0.4"/>
<ellipse cx="633.226" cy="377.925" rx="0.928504" ry="0.837128" fill="white" fill-opacity="0.5"/>
<ellipse cx="57.3585" cy="235.227" rx="0.893402" ry="0.805481" fill="white" fill-opacity="0.3"/>
<ellipse cx="253.478" cy="243.923" rx="0.689468" ry="0.621616" fill="white" fill-opacity="0.6"/>
<ellipse cx="721.77" cy="416.316" rx="0.832406" ry="0.750487" fill="white" fill-opacity="0.4"/>
<ellipse cx="271.423" cy="459.599" rx="0.908211" ry="0.818832" fill="white" fill-opacity="0.4"/>
<ellipse cx="259.558" cy="508.099" rx="0.861528" ry="0.776743" fill="white" fill-opacity="0.3"/>
<ellipse cx="201.137" cy="325.191" rx="0.875807" ry="0.789616" fill="white" fill-opacity="0.5"/>
<ellipse cx="267.242" cy="67.4932" rx="0.665746" ry="0.600228" fill="white" fill-opacity="0.5"/>
<ellipse cx="399.317" cy="175.322" rx="0.765846" ry="0.690477" fill="white" fill-opacity="0.6"/>
<ellipse cx="944.261" cy="270.015" rx="0.739194" ry="0.666448" fill="white" fill-opacity="0.4"/>
<ellipse cx="265.451" cy="125.668" rx="0.845298" ry="0.76211" fill="white" fill-opacity="0.5"/>
<ellipse cx="832.663" cy="312.656" rx="0.760439" ry="0.685602" fill="white" fill-opacity="0.6"/>
<ellipse cx="898.412" cy="434.685" rx="0.851501" ry="0.767703" fill="white" fill-opacity="0.5"/>
<ellipse cx="452.443" cy="367.662" rx="0.707507" ry="0.637879" fill="white" fill-opacity="0.5"/>
<ellipse cx="539.724" cy="343.942" rx="0.662136" ry="0.596974" fill="white" fill-opacity="0.3"/>
<ellipse cx="505.688" cy="460.658" rx="0.769962" ry="0.694188" fill="white" fill-opacity="0.5"/>
<ellipse cx="335.635" cy="499.732" rx="0.773365" ry="0.697257" fill="white" fill-opacity="0.3"/>
<ellipse cx="257.441" cy="505.598" rx="0.713857" ry="0.643604" fill="white" fill-opacity="0.5"/>
<ellipse cx="328.412" cy="118.5" rx="0.772981" ry="0.69691" fill="white" fill-opacity="0.5"/>
<ellipse cx="808.361" cy="156.96" rx="0.753051" ry="0.678941" fill="white" fill-opacity="0.4"/>
<ellipse cx="746.076" cy="410.408" rx="0.844454" ry="0.761349" fill="white" fill-opacity="0.5"/>
<ellipse cx="285.168" cy="456.599" rx="0.86373" ry="0.778728" fill="white" fill-opacity="0.3"/>
<ellipse cx="161.029" cy="351.188" rx="0.819769" ry="0.739094" fill="white" fill-opacity="0.4"/>
<ellipse cx="884.688" cy="119.221" rx="0.916475" ry="0.826282" fill="white" fill-opacity="0.6"/>
<ellipse cx="838.766" cy="97.3515" rx="0.954027" ry="0.860139" fill="white" fill-opacity="0.4"/>
<ellipse cx="765.23" cy="463.195" rx="0.956937" ry="0.862762" fill="white" fill-opacity="0.5"/>
<ellipse cx="88.657" cy="346.321" rx="0.673648" ry="0.607352" fill="white" fill-opacity="0.6"/>
<ellipse cx="514.435" cy="409.345" rx="0.979079" ry="0.882725" fill="white" fill-opacity="0.4"/>
<ellipse cx="97.3095" cy="206.129" rx="0.791473" ry="0.713583" fill="white" fill-opacity="0.5"/>
<ellipse cx="922.711" cy="477.905" rx="0.856889" ry="0.77256" fill="white" fill-opacity="0.4"/>
<ellipse cx="542.478" cy="177.12" rx="0.789109" ry="0.711451" fill="white" fill-opacity="0.6"/>
<ellipse cx="577.843" cy="41.4769" rx="0.699744" ry="0.63088" fill="white" fill-opacity="0.5"/>
<ellipse cx="392.112" cy="471.326" rx="0.783564" ry="0.706451" fill="white" fill-opacity="0.4"/>
<ellipse cx="257.043" cy="324.686" rx="0.971836" ry="0.876195" fill="white" fill-opacity="0.5"/>
<ellipse cx="895.607" cy="455.834" rx="0.672157" ry="0.606008" fill="white" fill-opacity="0.5"/>
<ellipse cx="663.462" cy="494.573" rx="0.960818" ry="0.866262" fill="white" fill-opacity="0.6"/>
<ellipse cx="195.187" cy="183.674" rx="0.835721" ry="0.753476" fill="white" fill-opacity="0.6"/>
<ellipse cx="140.585" cy="473.055" rx="0.730875" ry="0.658948" fill="white" fill-opacity="0.4"/>
<ellipse cx="71.1694" cy="272.541" rx="0.914972" ry="0.824928" fill="white" fill-opacity="0.6"/>
<ellipse cx="901.709" cy="462.52" rx="0.865033" ry="0.779903" fill="white" fill-opacity="0.4"/>
<ellipse cx="30.3784" cy="115.593" rx="0.83181" ry="0.74995" fill="white" fill-opacity="0.5"/>
<ellipse cx="907.64" cy="184.904" rx="0.887173" ry="0.799864" fill="white" fill-opacity="0.4"/>
<ellipse cx="509.072" cy="515.803" rx="0.870521" ry="0.784851" fill="white" fill-opacity="0.6"/>
<ellipse cx="727.818" cy="338.3" rx="0.969856" ry="0.87441" fill="white" fill-opacity="0.4"/>
<ellipse cx="598.995" cy="468.417" rx="0.839156" ry="0.756572" fill="white" fill-opacity="0.3"/>
<ellipse cx="56.1317" cy="480.381" rx="0.977849" ry="0.881616" fill="white" fill-opacity="0.5"/>
<ellipse cx="116.315" cy="98.9483" rx="0.755169" ry="0.680851" fill="white" fill-opacity="0.4"/>
<ellipse cx="387.502" cy="190.125" rx="0.769644" ry="0.693902" fill="white" fill-opacity="0.3"/>
<ellipse cx="665.216" cy="138.601" rx="0.744948" ry="0.671636" fill="white" fill-opacity="0.5"/>
<ellipse cx="61.9348" cy="189.626" rx="0.87251" ry="0.786644" fill="white" fill-opacity="0.4"/>
<ellipse cx="252.939" cy="103.733" rx="0.808832" ry="0.729233" fill="white" fill-opacity="0.4"/>
<ellipse cx="24.3205" cy="379.479" rx="0.682299" ry="0.615152" fill="white" fill-opacity="0.5"/>
<ellipse cx="162.998" cy="460.112" rx="0.820712" ry="0.739944" fill="white" fill-opacity="0.6"/>
<ellipse cx="21.958" cy="335.32" rx="0.947509" ry="0.854262" fill="white" fill-opacity="0.6"/>
<ellipse cx="688.965" cy="406.276" rx="0.858046" ry="0.773604" fill="white" fill-opacity="0.5"/>
<ellipse cx="889.349" cy="334.758" rx="0.980515" ry="0.88402" fill="white" fill-opacity="0.6"/>
<ellipse cx="504.371" cy="171.179" rx="0.765184" ry="0.689881" fill="white" fill-opacity="0.5"/>
<ellipse cx="834.835" cy="379.14" rx="0.963012" ry="0.868239" fill="white" fill-opacity="0.4"/>
<ellipse cx="929.777" cy="27.2695" rx="0.699885" ry="0.631008" fill="white" fill-opacity="0.5"/>
<ellipse cx="398.743" cy="227.491" rx="0.848739" ry="0.765212" fill="white" fill-opacity="0.4"/>
<ellipse cx="150.472" cy="23.7801" rx="0.768935" ry="0.693263" fill="white" fill-opacity="0.3"/>
<ellipse cx="375.879" cy="466.754" rx="0.96461" ry="0.869681" fill="white" fill-opacity="0.6"/>
<ellipse cx="103.211" cy="248.744" rx="0.783306" ry="0.706219" fill="white" fill-opacity="0.5"/>
<ellipse cx="400.555" cy="524.521" rx="0.690986" ry="0.622984" fill="white" fill-opacity="0.4"/>
<ellipse cx="76.9273" cy="436.974" rx="0.763005" ry="0.687916" fill="white" fill-opacity="0.6"/>
<ellipse cx="234.406" cy="396.033" rx="0.659425" ry="0.59453" fill="white" fill-opacity="0.5"/>
<ellipse cx="419.02" cy="519.265" rx="0.771558" ry="0.695627" fill="white" fill-opacity="0.5"/>
<ellipse cx="776.235" cy="236.92" rx="0.800562" ry="0.721777" fill="white" fill-opacity="0.3"/>
<ellipse cx="480.109" cy="153.447" rx="0.796559" ry="0.718168" fill="white" fill-opacity="0.6"/>
<ellipse cx="151.127" cy="221.499" rx="0.768202" ry="0.692602" fill="white" fill-opacity="0.6"/>
<ellipse cx="304.284" cy="433.581" rx="0.939221" ry="0.84679" fill="white" fill-opacity="0.4"/>
<ellipse cx="915.98" cy="0.623355" rx="0.691397" ry="0.623355" fill="white" fill-opacity="0.4"/>
<ellipse cx="872.83" cy="388.534" rx="0.876791" ry="0.790504" fill="white" fill-opacity="0.4"/>
<ellipse cx="182.098" cy="256.526" rx="0.879219" ry="0.792693" fill="white" fill-opacity="0.5"/>
<ellipse cx="922.023" cy="28.5669" rx="0.825278" ry="0.74406" fill="white" fill-opacity="0.5"/>
<ellipse cx="375.867" cy="510.549" rx="0.952623" ry="0.858873" fill="white" fill-opacity="0.4"/>
<ellipse cx="128.129" cy="454.129" rx="0.750592" ry="0.676725" fill="white" fill-opacity="0.6"/>
<ellipse cx="335.558" cy="388.963" rx="0.696397" ry="0.627863" fill="white" fill-opacity="0.4"/>
<ellipse cx="937.804" cy="436.456" rx="0.846299" ry="0.763013" fill="white" fill-opacity="0.5"/>
<ellipse cx="337.625" cy="400.299" rx="0.793928" ry="0.715796" fill="white" fill-opacity="0.3"/>
<ellipse cx="100.099" cy="119.846" rx="0.953374" ry="0.859551" fill="white" fill-opacity="0.4"/>
<ellipse cx="119.714" cy="57.6143" rx="0.870567" ry="0.784892" fill="white" fill-opacity="0.5"/>
<ellipse cx="623.853" cy="477.214" rx="0.747757" ry="0.674169" fill="white" fill-opacity="0.5"/>
<ellipse cx="585.969" cy="329.399" rx="0.945864" ry="0.852779" fill="white" fill-opacity="0.6"/>
<ellipse cx="565.543" cy="17.9565" rx="0.875457" ry="0.789301" fill="white" fill-opacity="0.6"/>
<ellipse cx="49.2871" cy="187.695" rx="0.700151" ry="0.631248" fill="white" fill-opacity="0.5"/>
<ellipse cx="197.73" cy="130.321" rx="0.752445" ry="0.678395" fill="white" fill-opacity="0.3"/>
<ellipse cx="177.343" cy="288.941" rx="0.720045" ry="0.649184" fill="white" fill-opacity="0.6"/>
<ellipse cx="66.5611" cy="406.907" rx="0.901683" ry="0.812946" fill="white" fill-opacity="0.3"/>
<ellipse cx="899.682" cy="492.067" rx="0.808296" ry="0.72875" fill="white" fill-opacity="0.6"/>
<ellipse cx="427.519" cy="395.508" rx="0.733725" ry="0.661517" fill="white" fill-opacity="0.3"/>
<ellipse cx="86.3202" cy="135.246" rx="0.962989" ry="0.868219" fill="white" fill-opacity="0.5"/>
<ellipse cx="299.045" cy="424.713" rx="0.953005" ry="0.859218" fill="white" fill-opacity="0.6"/>
<ellipse cx="718.609" cy="383.868" rx="0.954638" ry="0.86069" fill="white" fill-opacity="0.5"/>
<ellipse cx="93.9999" cy="493.212" rx="0.764519" ry="0.689281" fill="white" fill-opacity="0.6"/>
<ellipse cx="459.074" cy="303.196" rx="0.772662" ry="0.696622" fill="white" fill-opacity="0.3"/>
<ellipse cx="258.708" cy="497.861" rx="0.667855" ry="0.602129" fill="white" fill-opacity="0.6"/>
<ellipse cx="352.049" cy="477.235" rx="0.771167" ry="0.695275" fill="white" fill-opacity="0.5"/>
<ellipse cx="796.621" cy="8.44577" rx="0.832337" ry="0.750425" fill="white" fill-opacity="0.5"/>
<ellipse cx="644.382" cy="192.039" rx="0.922354" ry="0.831583" fill="white" fill-opacity="0.4"/>
<ellipse cx="284.539" cy="258.313" rx="0.892525" ry="0.80469" fill="white" fill-opacity="0.5"/>
<ellipse cx="819.444" cy="112.491" rx="0.674305" ry="0.607945" fill="white" fill-opacity="0.3"/>
<ellipse cx="715.249" cy="530.017" rx="0.877294" ry="0.790957" fill="white" fill-opacity="0.4"/>
<ellipse cx="759.345" cy="493.409" rx="0.981993" ry="0.885352" fill="white" fill-opacity="0.5"/>
<ellipse cx="308.226" cy="310.452" rx="0.941548" ry="0.848888" fill="white" fill-opacity="0.4"/>
<ellipse cx="237.186" cy="446.489" rx="0.812439" ry="0.732485" fill="white" fill-opacity="0.5"/>
<ellipse cx="507.78" cy="404.53" rx="0.891027" ry="0.803339" fill="white" fill-opacity="0.3"/>
<ellipse cx="131.424" cy="126.778" rx="0.762753" ry="0.687688" fill="white" fill-opacity="0.4"/>
<ellipse cx="67.2014" cy="187.27" rx="0.885947" ry="0.798759" fill="white" fill-opacity="0.5"/>
<ellipse cx="291.031" cy="83.6123" rx="0.81632" ry="0.735984" fill="white" fill-opacity="0.4"/>
<ellipse cx="805.721" cy="386.043" rx="0.740118" ry="0.667281" fill="white" fill-opacity="0.3"/>
<ellipse cx="846.353" cy="264.027" rx="0.663238" ry="0.597967" fill="white" fill-opacity="0.3"/>
<ellipse cx="649.608" cy="266.603" rx="0.894635" ry="0.806592" fill="white" fill-opacity="0.4"/>
<ellipse cx="742.725" cy="33.2585" rx="0.776936" ry="0.700476" fill="white" fill-opacity="0.4"/>
<ellipse cx="337.723" cy="163.005" rx="0.892205" ry="0.804401" fill="white" fill-opacity="0.4"/>
<ellipse cx="71.6453" cy="126.16" rx="0.734134" ry="0.661886" fill="white" fill-opacity="0.4"/>
<ellipse cx="70.4054" cy="522.85" rx="0.806978" ry="0.727561" fill="white" fill-opacity="0.5"/>
<ellipse cx="593.199" cy="325.853" rx="0.952885" ry="0.859109" fill="white" fill-opacity="0.5"/>
<ellipse cx="643.549" cy="101.899" rx="0.744755" ry="0.671462" fill="white" fill-opacity="0.6"/>
<ellipse cx="203.605" cy="457.061" rx="0.718962" ry="0.648207" fill="white" fill-opacity="0.4"/>
<ellipse cx="76.2255" cy="528.096" rx="0.717178" ry="0.646599" fill="white" fill-opacity="0.5"/>
<ellipse cx="269.5" cy="115.111" rx="0.953821" ry="0.859953" fill="white" fill-opacity="0.6"/>
<ellipse cx="691.058" cy="266.68" rx="0.979925" ry="0.883488" fill="white" fill-opacity="0.4"/>
<ellipse cx="681.566" cy="81.713" rx="0.679932" ry="0.613019" fill="white" fill-opacity="0.4"/>
<ellipse cx="373.661" cy="346.361" rx="0.718024" ry="0.647362" fill="white" fill-opacity="0.3"/>
<ellipse cx="791.298" cy="273.588" rx="0.762183" ry="0.687175" fill="white" fill-opacity="0.5"/>
<ellipse cx="722.444" cy="45.7559" rx="0.849753" ry="0.766127" fill="white" fill-opacity="0.4"/>
<ellipse cx="520.965" cy="132.862" rx="0.944201" ry="0.85128" fill="white" fill-opacity="0.6"/>
<ellipse cx="157.766" cy="243.467" rx="0.840434" ry="0.757725" fill="white" fill-opacity="0.4"/>
<ellipse cx="909.679" cy="438.923" rx="0.955918" ry="0.861844" fill="white" fill-opacity="0.5"/>
<ellipse cx="736.98" cy="380.304" rx="0.941131" ry="0.848512" fill="white" fill-opacity="0.4"/>
<ellipse cx="800.709" cy="231.162" rx="0.980609" ry="0.884105" fill="white" fill-opacity="0.6"/>
<ellipse cx="140.058" cy="506.322" rx="0.85938" ry="0.774807" fill="white" fill-opacity="0.4"/>
<ellipse cx="384.897" cy="340.507" rx="0.79103" ry="0.713183" fill="white" fill-opacity="0.5"/>
<ellipse cx="688.406" cy="316.383" rx="0.954087" ry="0.860193" fill="white" fill-opacity="0.5"/>
<ellipse cx="575.484" cy="25.7348" rx="0.967327" ry="0.87213" fill="white" fill-opacity="0.6"/>
<ellipse cx="823.431" cy="149.827" rx="0.721266" ry="0.650285" fill="white" fill-opacity="0.5"/>
<ellipse cx="785.502" cy="216.859" rx="0.874416" ry="0.788363" fill="white" fill-opacity="0.4"/>
<ellipse cx="551.783" cy="298.576" rx="0.902633" ry="0.813803" fill="white" fill-opacity="0.3"/>
<ellipse cx="943.641" cy="380.747" rx="0.775767" ry="0.699422" fill="white" fill-opacity="0.4"/>
<ellipse cx="505.133" cy="467.262" rx="0.871416" ry="0.785658" fill="white" fill-opacity="0.4"/>
<ellipse cx="789.255" cy="48.5697" rx="0.687674" ry="0.619998" fill="white" fill-opacity="0.5"/>
<ellipse cx="508.439" cy="13.2378" rx="0.894534" ry="0.806501" fill="white" fill-opacity="0.6"/>
<ellipse cx="134.797" cy="191.385" rx="0.853069" ry="0.769116" fill="white" fill-opacity="0.4"/>
<ellipse cx="2.28261" cy="279.103" rx="0.970111" ry="0.87464" fill="white" fill-opacity="0.3"/>
<ellipse cx="753.856" cy="53.9495" rx="0.744981" ry="0.671665" fill="white" fill-opacity="0.5"/>
<ellipse cx="637.764" cy="113.259" rx="0.870072" ry="0.784446" fill="white" fill-opacity="0.3"/>
<ellipse cx="568.048" cy="150.448" rx="0.75241" ry="0.678364" fill="white" fill-opacity="0.4"/>
<ellipse cx="395.501" cy="291.462" rx="0.889559" ry="0.802016" fill="white" fill-opacity="0.4"/>
<ellipse cx="313.385" cy="286.687" rx="0.846546" ry="0.763236" fill="white" fill-opacity="0.4"/>
<ellipse cx="553.793" cy="451.934" rx="0.942159" ry="0.849438" fill="white" fill-opacity="0.5"/>
<ellipse cx="589.669" cy="460.601" rx="0.706097" ry="0.636609" fill="white" fill-opacity="0.5"/>
<ellipse cx="795.402" cy="292.087" rx="0.926521" ry="0.835339" fill="white" fill-opacity="0.5"/>
<ellipse cx="67.1151" cy="319.203" rx="0.79965" ry="0.720955" fill="white" fill-opacity="0.6"/>
<ellipse cx="168.785" cy="316.744" rx="0.698745" ry="0.62998" fill="white" fill-opacity="0.3"/>
<ellipse cx="522.741" cy="159.917" rx="0.750323" ry="0.676482" fill="white" fill-opacity="0.6"/>
<ellipse cx="429.473" cy="91.2203" rx="0.719256" ry="0.648472" fill="white" fill-opacity="0.4"/>
<ellipse cx="6.80193" cy="239.963" rx="0.893478" ry="0.805549" fill="white" fill-opacity="0.6"/>
<ellipse cx="799.115" cy="20.7563" rx="0.698437" ry="0.629702" fill="white" fill-opacity="0.5"/>
<ellipse cx="639.824" cy="28.0968" rx="0.960573" ry="0.866041" fill="white" fill-opacity="0.4"/>
<ellipse cx="526.049" cy="325.693" rx="0.775243" ry="0.698949" fill="white" fill-opacity="0.6"/>
<ellipse cx="670.421" cy="493.153" rx="0.698876" ry="0.630098" fill="white" fill-opacity="0.5"/>
<ellipse cx="830.858" cy="221.642" rx="0.926815" ry="0.835605" fill="white" fill-opacity="0.5"/>
<ellipse cx="542.556" cy="64.1223" rx="0.86661" ry="0.781325" fill="white" fill-opacity="0.5"/>
<ellipse cx="157.884" cy="3.8237" rx="0.958228" ry="0.863927" fill="white" fill-opacity="0.5"/>
<ellipse cx="206.889" cy="149.235" rx="0.71978" ry="0.648945" fill="white" fill-opacity="0.6"/>
<ellipse cx="838.081" cy="414.626" rx="0.926683" ry="0.835486" fill="white" fill-opacity="0.6"/>
<ellipse cx="92.6093" cy="314.958" rx="0.687677" ry="0.620001" fill="white" fill-opacity="0.6"/>
<ellipse cx="943.747" cy="354.204" rx="0.882098" ry="0.795289" fill="white" fill-opacity="0.4"/>
<ellipse cx="714.504" cy="36.8211" rx="0.78847" ry="0.710875" fill="white" fill-opacity="0.4"/>
<ellipse cx="501.262" cy="387.998" rx="0.939034" ry="0.846621" fill="white" fill-opacity="0.6"/>
<ellipse cx="200.562" cy="314.611" rx="0.958806" ry="0.864448" fill="white" fill-opacity="0.4"/>
<ellipse cx="260.144" cy="294.331" rx="0.789577" ry="0.711873" fill="white" fill-opacity="0.5"/>
<ellipse cx="686.344" cy="180.738" rx="0.862681" ry="0.777782" fill="white" fill-opacity="0.4"/>
<ellipse cx="909.635" cy="145.264" rx="0.911674" ry="0.821954" fill="white" fill-opacity="0.3"/>
<ellipse cx="73.0179" cy="7.22597" rx="0.792585" ry="0.714585" fill="white" fill-opacity="0.5"/>
<ellipse cx="612.836" cy="138.143" rx="0.892523" ry="0.804688" fill="white" fill-opacity="0.5"/>
<ellipse cx="314.694" cy="36.2788" rx="0.843264" ry="0.760276" fill="white" fill-opacity="0.6"/>
<ellipse cx="36.8105" cy="158.686" rx="0.697993" ry="0.629302" fill="white" fill-opacity="0.3"/>
<ellipse cx="764.36" cy="270.02" rx="0.744878" ry="0.671573" fill="white" fill-opacity="0.4"/>
<ellipse cx="933.829" cy="468.393" rx="0.813207" ry="0.733177" fill="white" fill-opacity="0.4"/>
<ellipse cx="384.34" cy="199.114" rx="0.890868" ry="0.803196" fill="white" fill-opacity="0.5"/>
<ellipse cx="47.5352" cy="65.3522" rx="0.917753" ry="0.827435" fill="white" fill-opacity="0.5"/>
<ellipse cx="424.482" cy="132.301" rx="0.979529" ry="0.883131" fill="white" fill-opacity="0.5"/>
<ellipse cx="694.247" cy="443.596" rx="0.88638" ry="0.79915" fill="white" fill-opacity="0.6"/>
<ellipse cx="113.032" cy="452.357" rx="0.754805" ry="0.680522" fill="white" fill-opacity="0.5"/>
<ellipse cx="442.036" cy="175.359" rx="0.806409" ry="0.727048" fill="white" fill-opacity="0.6"/>
<ellipse cx="377.141" cy="328.777" rx="0.913078" ry="0.82322" fill="white" fill-opacity="0.4"/>
<ellipse cx="365.902" cy="132.173" rx="0.837231" ry="0.754837" fill="white" fill-opacity="0.5"/>
<ellipse cx="470.888" cy="43.3144" rx="0.768004" ry="0.692423" fill="white" fill-opacity="0.5"/>
<ellipse cx="710.445" cy="143.862" rx="0.670476" ry="0.604492" fill="white" fill-opacity="0.3"/>
<ellipse cx="683.568" cy="499.676" rx="0.711808" ry="0.641757" fill="white" fill-opacity="0.5"/>
<ellipse cx="328.503" cy="11.4345" rx="0.864296" ry="0.779238" fill="white" fill-opacity="0.5"/>
<ellipse cx="784.195" cy="373.739" rx="0.881098" ry="0.794387" fill="white" fill-opacity="0.6"/>
<ellipse cx="249.508" cy="350.453" rx="0.660946" ry="0.5959" fill="white" fill-opacity="0.3"/>
<ellipse cx="29.1203" cy="12.0465" rx="0.886405" ry="0.799171" fill="white" fill-opacity="0.4"/>
<ellipse cx="180.639" cy="258.17" rx="0.733664" ry="0.661462" fill="white" fill-opacity="0.5"/>
<ellipse cx="286.438" cy="30.9305" rx="0.821059" ry="0.740256" fill="white" fill-opacity="0.4"/>
<ellipse cx="201.89" cy="271.41" rx="0.973876" ry="0.878035" fill="white" fill-opacity="0.5"/>
<ellipse cx="155.78" cy="78.8831" rx="0.823719" ry="0.742655" fill="white" fill-opacity="0.5"/>
<ellipse cx="144.708" cy="212.16" rx="0.914375" ry="0.824389" fill="white" fill-opacity="0.5"/>
<ellipse cx="110.588" cy="475.016" rx="0.936655" ry="0.844477" fill="white" fill-opacity="0.6"/>
<ellipse cx="185.233" cy="42.0972" rx="0.731011" ry="0.65907" fill="white" fill-opacity="0.4"/>
<ellipse cx="774.974" cy="68.2544" rx="0.853107" ry="0.769151" fill="white" fill-opacity="0.5"/>
<ellipse cx="47.3652" cy="50.992" rx="0.747736" ry="0.67415" fill="white" fill-opacity="0.5"/>
<ellipse cx="312.845" cy="530.686" rx="0.963175" ry="0.868386" fill="white" fill-opacity="0.5"/>
<ellipse cx="402.125" cy="499.888" rx="0.946777" ry="0.853602" fill="white" fill-opacity="0.6"/>
<ellipse cx="432.769" cy="413.267" rx="0.732289" ry="0.660223" fill="white" fill-opacity="0.5"/>
<ellipse cx="64.6348" cy="159.502" rx="0.94559" ry="0.852533" fill="white" fill-opacity="0.4"/>
<ellipse cx="199.671" cy="431.018" rx="0.722921" ry="0.651776" fill="white" fill-opacity="0.5"/>
<ellipse cx="95.4249" cy="500.416" rx="0.875382" ry="0.789234" fill="white" fill-opacity="0.4"/>
<ellipse cx="281.045" cy="176.43" rx="0.681024" ry="0.614002" fill="white" fill-opacity="0.4"/>
<ellipse cx="171.488" cy="483.749" rx="0.773757" ry="0.69761" fill="white" fill-opacity="0.6"/>
<ellipse cx="489.228" cy="5.38651" rx="0.722264" ry="0.651184" fill="white" fill-opacity="0.6"/>
<ellipse cx="608.217" cy="55.8373" rx="0.869385" ry="0.783827" fill="white" fill-opacity="0.4"/>
<ellipse cx="602.96" cy="73.0004" rx="0.865119" ry="0.77998" fill="white" fill-opacity="0.4"/>
<ellipse cx="469.581" cy="341.675" rx="0.773336" ry="0.69723" fill="white" fill-opacity="0.6"/>
<ellipse cx="747.946" cy="425.117" rx="0.744316" ry="0.671066" fill="white" fill-opacity="0.3"/>
<ellipse cx="247.544" cy="387.159" rx="0.665679" ry="0.600168" fill="white" fill-opacity="0.4"/>
<ellipse cx="883.884" cy="300.822" rx="0.767009" ry="0.691526" fill="white" fill-opacity="0.5"/>
<ellipse cx="495.288" cy="486.207" rx="0.873426" ry="0.78747" fill="white" fill-opacity="0.3"/>
<ellipse cx="405.168" cy="523.353" rx="0.709401" ry="0.639587" fill="white" fill-opacity="0.4"/>
<ellipse cx="746.029" cy="87.7391" rx="0.797379" ry="0.718907" fill="white" fill-opacity="0.6"/>
<ellipse cx="110.972" cy="261.068" rx="0.664769" ry="0.599347" fill="white" fill-opacity="0.3"/>
<ellipse cx="451.963" cy="106.17" rx="0.885148" ry="0.798039" fill="white" fill-opacity="0.6"/>
<ellipse cx="912.733" cy="380.703" rx="0.726274" ry="0.6548" fill="white" fill-opacity="0.4"/>
<ellipse cx="736.246" cy="106.15" rx="0.863473" ry="0.778497" fill="white" fill-opacity="0.5"/>
<ellipse cx="294.936" cy="75.8861" rx="0.782589" ry="0.705573" fill="white" fill-opacity="0.3"/>
<ellipse cx="819.729" cy="347.169" rx="0.958819" ry="0.864459" fill="white" fill-opacity="0.5"/>
<ellipse cx="0.886121" cy="209.174" rx="0.886121" ry="0.798916" fill="white" fill-opacity="0.6"/>
<ellipse cx="358.784" cy="134.635" rx="0.940901" ry="0.848304" fill="white" fill-opacity="0.5"/>
<ellipse cx="178.062" cy="75.8858" rx="0.782254" ry="0.705271" fill="white" fill-opacity="0.4"/>
<ellipse cx="613.296" cy="485.456" rx="0.696617" ry="0.628061" fill="white" fill-opacity="0.6"/>
<ellipse cx="765.058" cy="79.4405" rx="0.785149" ry="0.707881" fill="white" fill-opacity="0.5"/>
<ellipse cx="470.143" cy="335.67" rx="0.680122" ry="0.613189" fill="white" fill-opacity="0.3"/>
<ellipse cx="358.67" cy="388.489" rx="0.827306" ry="0.745889" fill="white" fill-opacity="0.4"/>
<ellipse cx="819.041" cy="359.572" rx="0.926763" ry="0.835558" fill="white" fill-opacity="0.4"/>
<ellipse cx="158.431" cy="253.538" rx="0.848838" ry="0.765302" fill="white" fill-opacity="0.3"/>
<ellipse cx="81.5425" cy="96.6038" rx="0.781053" ry="0.704188" fill="white" fill-opacity="0.3"/>
<ellipse cx="80.2738" cy="362.442" rx="0.826548" ry="0.745206" fill="white" fill-opacity="0.6"/>
<ellipse cx="813.143" cy="97.3377" rx="0.938695" ry="0.846316" fill="white" fill-opacity="0.4"/>
<ellipse cx="311.477" cy="379.092" rx="0.909127" ry="0.819658" fill="white" fill-opacity="0.6"/>
<ellipse cx="698.848" cy="325.798" rx="0.890962" ry="0.80328" fill="white" fill-opacity="0.6"/>
<ellipse cx="571.943" cy="132.648" rx="0.707486" ry="0.637861" fill="white" fill-opacity="0.5"/>
<ellipse cx="634.315" cy="417.977" rx="0.704007" ry="0.634724" fill="white" fill-opacity="0.6"/>
<ellipse cx="450.564" cy="139.833" rx="0.798124" ry="0.719579" fill="white" fill-opacity="0.5"/>
<ellipse cx="644.151" cy="515.049" rx="0.690908" ry="0.622914" fill="white" fill-opacity="0.4"/>
<ellipse cx="249.722" cy="241.131" rx="0.874951" ry="0.788845" fill="white" fill-opacity="0.4"/>
<ellipse cx="200.284" cy="127.888" rx="0.681271" ry="0.614225" fill="white" fill-opacity="0.4"/>
<ellipse cx="530.55" cy="374.149" rx="0.680286" ry="0.613337" fill="white" fill-opacity="0.4"/>
<ellipse cx="549.06" cy="516.93" rx="0.807486" ry="0.72802" fill="white" fill-opacity="0.4"/>
<ellipse cx="712.038" cy="345.978" rx="0.949076" ry="0.855675" fill="white" fill-opacity="0.4"/>
<ellipse cx="547.206" cy="212.757" rx="0.920855" ry="0.830232" fill="white" fill-opacity="0.4"/>
<ellipse cx="172.209" cy="232.219" rx="0.839389" ry="0.756783" fill="white" fill-opacity="0.6"/>
<ellipse cx="34.9875" cy="97.8457" rx="0.845174" ry="0.761998" fill="white" fill-opacity="0.4"/>
<ellipse cx="624.463" cy="76.4053" rx="0.701681" ry="0.632627" fill="white" fill-opacity="0.5"/>
<ellipse cx="641.104" cy="23.9224" rx="0.926762" ry="0.835557" fill="white" fill-opacity="0.5"/>
<ellipse cx="39.4301" cy="341.009" rx="0.691101" ry="0.623088" fill="white" fill-opacity="0.4"/>
<ellipse cx="109.814" cy="9.02643" rx="0.820058" ry="0.739354" fill="white" fill-opacity="0.4"/>
<ellipse cx="224.061" cy="293.766" rx="0.819198" ry="0.738579" fill="white" fill-opacity="0.3"/>
<ellipse cx="677.018" cy="292.5" rx="0.72846" ry="0.656771" fill="white" fill-opacity="0.4"/>
<ellipse cx="316.021" cy="149.951" rx="0.858465" ry="0.773981" fill="white" fill-opacity="0.3"/>
<ellipse cx="934.378" cy="108.374" rx="0.703871" ry="0.634601" fill="white" fill-opacity="0.4"/>
<ellipse cx="189.227" cy="334.581" rx="0.783831" ry="0.706692" fill="white" fill-opacity="0.5"/>
<ellipse cx="5.98438" cy="101.887" rx="0.731202" ry="0.659243" fill="white" fill-opacity="0.4"/>
<ellipse cx="223.347" cy="526.361" rx="0.762871" ry="0.687795" fill="white" fill-opacity="0.3"/>
<ellipse cx="853.05" cy="490.28" rx="0.794547" ry="0.716353" fill="white" fill-opacity="0.4"/>
<ellipse cx="337.513" cy="84.0829" rx="0.681825" ry="0.614725" fill="white" fill-opacity="0.3"/>
<ellipse cx="466.215" cy="477.755" rx="0.690475" ry="0.622524" fill="white" fill-opacity="0.6"/>
<ellipse cx="385.016" cy="151.182" rx="0.910001" ry="0.820446" fill="white" fill-opacity="0.5"/>
<ellipse cx="857.02" cy="125.058" rx="0.824268" ry="0.74315" fill="white" fill-opacity="0.4"/>
<ellipse cx="450.474" cy="405.549" rx="0.707875" ry="0.638211" fill="white" fill-opacity="0.5"/>
<ellipse cx="469.648" cy="396.197" rx="0.840808" ry="0.758062" fill="white" fill-opacity="0.4"/>
<ellipse cx="389.362" cy="80.5105" rx="0.658786" ry="0.593954" fill="white" fill-opacity="0.6"/>
<ellipse cx="898.895" cy="173.467" rx="0.677223" ry="0.610576" fill="white" fill-opacity="0.3"/>
<ellipse cx="25.055" cy="200.774" rx="0.761326" ry="0.686402" fill="white" fill-opacity="0.5"/>
<ellipse cx="309.454" cy="184.875" rx="0.855721" ry="0.771508" fill="white" fill-opacity="0.3"/>
<ellipse cx="523.462" cy="236.341" rx="0.814825" ry="0.734636" fill="white" fill-opacity="0.5"/>
<ellipse cx="202.452" cy="76.5648" rx="0.878638" ry="0.792169" fill="white" fill-opacity="0.5"/>
<ellipse cx="906.271" cy="352.974" rx="0.830898" ry="0.749127" fill="white" fill-opacity="0.4"/>
<ellipse cx="943.622" cy="101.318" rx="0.757527" ry="0.682976" fill="white" fill-opacity="0.3"/>
<ellipse cx="496.039" cy="13.3042" rx="0.968117" ry="0.872842" fill="white" fill-opacity="0.6"/>
<ellipse cx="202.948" cy="58.6601" rx="0.717336" ry="0.646741" fill="white" fill-opacity="0.5"/>
<ellipse cx="3.95117" cy="429.784" rx="0.668459" ry="0.602674" fill="white" fill-opacity="0.4"/>
<ellipse cx="9.87034" cy="256.345" rx="0.678929" ry="0.612114" fill="white" fill-opacity="0.4"/>
<ellipse cx="851.134" cy="58.7766" rx="0.846501" ry="0.763195" fill="white" fill-opacity="0.4"/>
<ellipse cx="489.978" cy="409.792" rx="0.818099" ry="0.737588" fill="white" fill-opacity="0.4"/>
<ellipse cx="391.439" cy="176.508" rx="0.767662" ry="0.692114" fill="white" fill-opacity="0.5"/>
<g opacity="0.1">
<g clip-path="url(#clip1_17928_3888)">
<path d="M0 -1.99997V860.987" stroke="white" stroke-width="0.654481"/>
<path d="M41.887 -1.99991V860.987" stroke="white" stroke-width="0.654481"/>
<path d="M83.7734 -1.99991V860.987" stroke="white" stroke-width="0.654481"/>
<path d="M125.66 -1.99991V860.987" stroke="white" stroke-width="0.654481"/>
<path d="M167.547 -1.99991V860.987" stroke="white" stroke-width="0.654481"/>
<path d="M209.434 -1.99997V860.987" stroke="white" stroke-width="0.654481"/>
<path d="M251.321 -1.99991V860.987" stroke="white" stroke-width="0.654481"/>
<path d="M293.208 -1.99991V860.987" stroke="white" stroke-width="0.654481"/>
<path d="M335.094 -1.99991V860.987" stroke="white" stroke-width="0.654481"/>
<path d="M376.981 -1.99991V860.987" stroke="white" stroke-width="0.654481"/>
<path d="M418.868 -1.99991V860.987" stroke="white" stroke-width="0.654481"/>
<path d="M460.754 -1.99991V860.987" stroke="white" stroke-width="0.654481"/>
<path d="M502.641 -1.99991V860.987" stroke="white" stroke-width="0.654481"/>
<path d="M544.528 -1.99991V860.987" stroke="white" stroke-width="0.654481"/>
<path d="M586.415 -1.99991V860.987" stroke="white" stroke-width="0.654481"/>
<path d="M628.301 -1.99991V860.987" stroke="white" stroke-width="0.654481"/>
<path d="M670.188 -1.99991V860.987" stroke="white" stroke-width="0.654481"/>
<path d="M712.075 -1.99991V860.987" stroke="white" stroke-width="0.654481"/>
<path d="M753.962 -1.99991V860.987" stroke="white" stroke-width="0.654481"/>
<path d="M795.849 -1.99991V860.987" stroke="white" stroke-width="0.654481"/>
<path d="M837.735 -1.99991V860.987" stroke="white" stroke-width="0.654481"/>
<path d="M879.622 -1.99991V860.987" stroke="white" stroke-width="0.654481"/>
<path d="M921.509 -1.99991V860.987" stroke="white" stroke-width="0.654481"/>
</g>
<g clip-path="url(#clip2_17928_3888)">
<path d="M0 39.8868L945 39.8868" stroke="white" stroke-width="0.654481"/>
<path d="M0 81.7736L945 81.7736" stroke="white" stroke-width="0.654481"/>
<path d="M0 123.66L945 123.66" stroke="white" stroke-width="0.654481"/>
<path d="M0 246.434L945 246.434" stroke="white" stroke-width="0.654481"/>
<path d="M0 288.321L945 288.321" stroke="white" stroke-width="0.654481"/>
<path d="M0 330.207L945 330.207" stroke="white" stroke-width="0.654481"/>
<path d="M0 372.094L945 372.094" stroke="white" stroke-width="0.654481"/>
<path d="M0 413.981L945 413.981" stroke="white" stroke-width="0.654481"/>
<path d="M0 455.868L945 455.868" stroke="white" stroke-width="0.654481"/>
<path d="M0 497.754L945 497.754" stroke="white" stroke-width="0.654481"/>
<path d="M0 539.641L945 539.641" stroke="white" stroke-width="0.654481"/>
<path d="M0 581.528L945 581.528" stroke="white" stroke-width="0.654481"/>
</g>
</g>
</g>
<defs>
<clipPath id="clip0_17928_3888">
<rect width="945" height="607" fill="white"/>
</clipPath>
<clipPath id="clip1_17928_3888">
<rect width="945" height="608.652" fill="white" transform="translate(0 -1.99997)"/>
</clipPath>
<clipPath id="clip2_17928_3888">
<rect width="945" height="608.652" fill="white" transform="translate(0 -1.99997)"/>
</clipPath>
</defs>
</svg>
